<?xml version="1.0" encoding="UTF-8" standalone="no"?><!DOCTYPE svg PUBLIC "-//W3C//DTD SVG 1.1//EN" "http://www.w3.org/Graphics/SVG/1.1/DTD/svg11.dtd"><svg width="100%" height="100%" viewBox="0 0 177 103" version="1.1" xmlns="http://www.w3.org/2000/svg" xmlns:xlink="http://www.w3.org/1999/xlink" xml:space="preserve" xmlns:serif="http://www.serif.com/" style="fill-rule:evenodd;clip-rule:evenodd;stroke-linejoin:round;stroke-miterlimit:2;"><g><g id="g10"><g id="g12"><path id="path14" d="M50.11,75.934c-0.165,0.164 -0.431,0.165 -0.595,-0l-6.114,-6.914c-0.419,-0.419 -1.097,-0.419 -1.515,-0c-0.418,0.418 -0.418,1.096 0,1.514l6.169,6.86c0.299,0.299 0.299,0.783 -0,1.082c-0.299,0.298 -0.783,0.298 -1.082,-0l-6.86,-6.169c-0.418,-0.418 -1.096,-0.418 -1.515,0c-0.418,0.418 -0.418,1.097 0,1.514l6.915,6.115c0.164,0.164 0.164,0.43 -0,0.595c-0.121,0.12 -0.297,0.152 -0.446,0.096c-0,-0 -4.79,-1.787 -7.211,-4.207c-1.493,-1.494 -2.236,-3.287 -2.266,-4.977l-0.001,0l-0.008,0.008c-0.01,-1.684 0.217,-2.792 -1.224,-4.267l0.001,-0.001l-1.836,-1.694l-1.929,1.779c-1.446,1.849 -1.11,3.089 -1.119,4.599l-0.008,-0.009c-0.033,1.791 -0.82,3.691 -2.403,5.274c-2.957,2.957 -8.422,4.562 -10.805,2.18c-2.383,-2.383 -0.78,-7.851 2.177,-10.809c1.583,-1.582 3.483,-2.37 5.273,-2.402l-0.008,-0.009c1.501,-0.008 2.708,0.296 4.471,-1.191l13.387,-14.515c0.959,-1.046 2.596,-1.081 3.599,-0.078c1.003,1.003 0.968,2.64 -0.077,3.599l-9.913,9.143l1.609,1.745c1.468,1.423 2.576,1.197 4.254,1.207l-0.008,0.008l0.001,0l-0.001,0.001c1.69,0.03 3.484,0.773 4.977,2.266c2.431,2.431 4.203,7.201 4.203,7.201c0.062,0.152 0.031,0.333 -0.092,0.456Zm-30.223,-25.626c1.003,-1.003 2.64,-0.968 3.599,0.078l6.556,7.108l-2.844,3.084l-7.233,-6.671c-1.045,-0.959 -1.081,-2.596 -0.078,-3.599Zm43.66,13.964c0,-17.161 -13.911,-31.072 -31.071,-31.072c-17.16,0 -31.071,13.911 -31.071,31.072c-0,0.432 0.011,0.862 0.028,1.29c-0.028,1.374 0.115,4.459 1.547,8.499c1.305,3.933 3.373,7.517 6.03,10.577c4.236,5.279 10.815,10.967 21.014,16.199c1.537,0.789 3.366,0.789 4.903,0c10.2,-5.232 16.778,-10.92 21.015,-16.199c2.657,-3.06 4.725,-6.644 6.03,-10.576c1.432,-4.041 1.575,-7.127 1.546,-8.501c0.018,-0.427 0.029,-0.857 0.029,-1.289" style="fill:#fd4f57;fill-rule:nonzero;"/></g></g><clipPath id="_clip1"><rect id="toast-logo.svg" x="111.704" y="0" width="65.03" height="63.414"/></clipPath><g clip-path="url(#_clip1)"><g><g><g><path id="Shape_2_" d="M176.734,43.672c0.06,-4.188 -0.12,-8.315 -0.539,-12.503c-0.299,-2.812 -1.256,-6.401 -4.307,-7.119c0.419,0.119 0.778,0.059 1.196,-0.06c3.53,-1.855 3.231,-6.401 2.035,-9.632c-1.616,-4.307 -5.504,-7.358 -9.393,-9.333c-13.879,-7.239 -32.365,-6.64 -45.766,1.616c-3.53,2.153 -7.538,6.341 -5.743,11.067c0.478,1.137 1.196,2.214 2.094,3.111c0.418,0.419 1.316,1.376 1.316,1.376c-1.795,2.453 -3.111,4.607 -3.949,7.598c-2.572,8.854 -2.153,14.597 -1.436,21.716c0.419,4.427 1.915,11.008 7,11.726c4.188,0.598 8.675,-0.778 12.803,-1.256c4.606,-0.539 9.213,-1.376 13.819,-1.257c6.521,0.18 12.982,1.735 19.563,1.795c3.47,0.06 9.213,0.359 10.23,-4.188c0.957,-4.307 1.017,-8.794 1.017,-13.221c0.06,-0.479 0.06,-0.957 0.06,-1.436Zm-7.478,7.478c-1.616,3.65 -6.222,3.231 -9.453,2.992c-4.786,-0.419 -9.512,-1.556 -14.358,-1.735c-4.247,-0.12 -8.495,0.658 -12.623,1.615c-3.111,0.658 -7.418,2.453 -10.23,0.06c-3.111,-2.633 -3.649,-7.119 -3.709,-10.888c0.06,-3.41 0.419,-6.88 1.017,-10.23c0.359,-2.094 1.017,-4.128 1.855,-6.103c1.136,-2.811 2.752,-4.546 2.871,-4.427c-0.837,-0.837 -1.854,-1.316 -2.393,-2.512c-2.153,-4.427 3.171,-8.196 6.102,-9.512c10.171,-4.547 24.409,-4.128 34.041,1.734c2.991,1.795 8.794,8.077 3.35,11.188c3.35,1.555 4.188,6.341 4.607,9.751c0.598,5.444 0.418,10.948 -0.539,16.332c-0.12,0.599 -0.299,1.197 -0.538,1.735Z" style="fill:#ff4c00;fill-rule:nonzero;"/></g></g></g></g></g></svg>