<?xml version="1.0" encoding="UTF-8" standalone="no"?><!DOCTYPE svg PUBLIC "-//W3C//DTD SVG 1.1//EN" "http://www.w3.org/Graphics/SVG/1.1/DTD/svg11.dtd"><svg width="100%" height="100%" viewBox="0 0 122 111" version="1.1" xmlns="http://www.w3.org/2000/svg" xmlns:xlink="http://www.w3.org/1999/xlink" xml:space="preserve" xmlns:serif="http://www.serif.com/" style="fill-rule:evenodd;clip-rule:evenodd;stroke-linejoin:round;stroke-miterlimit:2;"><path d="M105.565,55.565c-2.005,1.093 -3.83,2.146 -5.711,3.085c-1.605,0.801 -3.292,1.438 -4.903,2.229c-0.329,0.161 -0.482,0.683 -0.716,1.039c0.458,0.072 1.014,0.349 1.358,0.184c2.567,-1.238 4.787,0.193 7.115,0.818c2.32,0.622 4.626,1.331 6.984,1.739c0.454,0.079 1.389,-0.962 1.638,-1.653c1.154,-3.209 2.164,-6.47 3.172,-9.729c0.159,-0.516 0.039,-1.117 0.048,-1.679c-0.46,0.14 -0.942,0.232 -1.376,0.43c-2.49,1.134 -4.97,2.295 -7.609,3.537Zm4.301,4.205c-0.404,-0.096 -0.807,-0.192 -1.21,-0.289c0.343,-0.273 0.686,-0.546 1.028,-0.82c0.083,0.288 0.166,0.575 0.182,1.109Z" style="fill-rule:nonzero;"/><path d="M9.644,58.602c2.579,-2.861 4.968,-5.662 7.45,-8.38c0.54,-0.592 1.472,-0.811 2.106,-1.342c0.358,-0.301 0.476,-0.888 0.703,-1.346c-0.415,0.01 -0.913,-0.127 -1.229,0.054c-1.246,0.716 -2.611,1.354 -3.608,2.346c-2.134,2.123 -4.068,4.446 -6.08,6.691c-0.11,0.123 -0.163,0.298 -0.274,0.42c-0.414,0.456 -0.841,0.899 -1.264,1.346c0.68,0.101 1.359,0.201 2.196,0.211Z" style="fill-rule:nonzero;"/><path d="M89.93,37.839c1.179,1.564 2.233,3 3.375,4.362c0.391,0.466 1.042,0.488 0.942,-0.347c-0.098,-0.816 -0.408,-1.638 -0.775,-2.382c-0.444,-0.899 -0.865,-1.96 -1.616,-2.526c-1.819,-1.37 -3.809,-2.519 -5.773,-3.686c-0.272,-0.162 -0.784,0.081 -1.185,0.136c0.185,0.417 0.256,0.983 0.574,1.223c1.417,1.072 2.905,2.051 4.458,3.22Z" style="fill-rule:nonzero;"/><path d="M70.511,25.32c-1.917,-0.516 -3.708,-1.008 -5.507,-1.472c-0.26,-0.067 -0.627,-0.101 -0.822,0.031c-0.413,0.28 -0.746,0.68 -1.111,1.03c0.362,0.185 0.708,0.421 1.09,0.547c3.247,1.066 6.493,2.136 9.761,3.138c0.426,0.13 0.969,-0.123 1.458,-0.198c-0.296,-0.403 -0.507,-0.959 -0.905,-1.18c-1.242,-0.689 -2.555,-1.251 -3.964,-1.896Z" style="fill-rule:nonzero;"/><path d="M43.27,27.122c-0.289,0.783 0.262,1.357 0.95,1.103c2.31,-0.856 4.615,-1.737 6.867,-2.733c0.482,-0.213 0.758,-0.938 1.046,-1.472c0.025,-0.046 -0.666,-0.688 -0.873,-0.617c-2.159,0.749 -4.303,1.547 -6.412,2.427c-0.546,0.228 -0.951,0.792 -1.578,1.292Z" style="fill-rule:nonzero;"/><path d="M26.697,38.025c-0.137,0.253 -0.279,0.368 -0.339,0.515c-0.263,0.653 -0.894,1.675 -0.68,1.908c0.722,0.786 1.385,-0.114 1.896,-0.558c1.608,-1.397 3.133,-2.89 4.696,-4.338c0.129,-0.119 0.417,-0.158 0.445,-0.277c0.135,-0.583 0.207,-1.181 0.302,-1.773c-0.59,0.181 -1.294,0.217 -1.749,0.572c-1.56,1.215 -3.032,2.543 -4.571,3.951Z" style="fill-rule:nonzero;"/><path d="M102.522,48.651c-1.301,-0.866 -1.848,-0.727 -1.649,0.421c0.315,1.816 0.912,3.603 1.594,5.322c0.157,0.394 1.143,0.458 1.748,0.674c0.095,-0.449 0.385,-0.967 0.254,-1.336c-0.595,-1.675 -1.309,-3.309 -1.947,-5.081Z" style="fill-rule:nonzero;"/></svg>