<?xml version="1.0" encoding="UTF-8" standalone="no"?><!DOCTYPE svg PUBLIC "-//W3C//DTD SVG 1.1//EN" "http://www.w3.org/Graphics/SVG/1.1/DTD/svg11.dtd"><svg width="100%" height="100%" viewBox="0 0 24 21" version="1.1" xmlns="http://www.w3.org/2000/svg" xmlns:xlink="http://www.w3.org/1999/xlink" xml:space="preserve" xmlns:serif="http://www.serif.com/" style="fill-rule:evenodd;clip-rule:evenodd;stroke-linejoin:round;stroke-miterlimit:2;"><g><g><path d="M22.206,6.091l-0,14.039c-0,0.459 -0.373,0.832 -0.832,0.832l-19.336,-0c-0.46,-0 -0.832,-0.373 -0.832,-0.832l-0,-14.039c-0,-0.459 0.372,-0.831 0.832,-0.831l19.336,-0c0.459,-0 0.832,0.372 0.832,0.831Z" style="fill:#9aa5b1;"/><g><path d="M6.001,7.889l6,0l-0,-7.875l-5.102,0l-0.898,7.875Z" style="fill:#fff;fill-rule:nonzero;"/><path d="M18.001,7.889l-6,0l-0,-7.875l5.101,0l0.899,7.875Zm4.205,-6.382l0.007,0.027c-0.002,-0.01 -0.005,-0.018 -0.007,-0.027Z" style="fill:#fff;fill-rule:nonzero;"/><path d="M22.213,1.534l-0.007,-0.027c-0.191,-0.871 -0.962,-1.492 -1.853,-1.493l-3.251,0l0.898,7.875l6,0l-1.787,-6.355Z" style="fill:#fff;fill-rule:nonzero;"/><path d="M1.788,1.534l0.007,-0.027c0.191,-0.871 0.962,-1.492 1.853,-1.493l3.251,0l-0.899,7.875l-6,0l1.788,-6.355Z" style="fill:#fff;fill-rule:nonzero;"/></g></g><g><path d="M6.011,7.887c-0,1.656 -1.343,2.998 -2.998,2.998c-1.656,0 -2.999,-1.342 -2.999,-2.998l5.997,0Z" style="fill:#fff;"/><path d="M12.007,7.887c0,1.656 -1.342,2.998 -2.998,2.998c-1.656,0 -2.998,-1.342 -2.998,-2.998l5.996,0Z" style="fill:#fff;"/><path d="M18.004,7.887c0,1.656 -1.342,2.998 -2.998,2.998c-1.656,0 -2.999,-1.342 -2.999,-2.998l5.997,0Z" style="fill:#fff;"/><path d="M24,7.887c0,1.656 -1.342,2.998 -2.998,2.998c-1.656,0 -2.999,-1.342 -2.999,-2.998l5.997,0Z" style="fill:#fff;"/></g><path d="M21.002,16.01c-0.011,-0.142 -0.028,-0.273 -0.053,-0.439l-3.271,-0c-0,0.457 -0,0.956 -0.002,1.414l1.895,0c-0.081,0.431 -0.331,0.812 -0.694,1.058c-0.362,0.246 0,-0.008 -0.001,-0.008c-0.232,0.152 -0.493,0.254 -0.767,0.299c-0.274,0.05 -0.556,0.049 -0.83,-0.004c-0.278,-0.057 -0.542,-0.171 -0.774,-0.335c-0.343,-0.243 -0.607,-0.581 -0.761,-0.972c-0.011,-0.031 -0.022,-0.061 -0.033,-0.093l-0,-0.003l0.003,-0.002c-0.149,-0.438 -0.15,-0.912 -0.001,-1.35c0.104,-0.307 0.276,-0.587 0.503,-0.819c0.532,-0.55 1.327,-0.757 2.06,-0.536c0.281,0.086 0.537,0.237 0.749,0.441l0.639,-0.639c0.113,-0.114 0.23,-0.224 0.339,-0.342c-0.324,-0.302 -0.705,-0.538 -1.12,-0.694c-0.755,-0.273 -1.582,-0.281 -2.342,-0.02c-0.026,0.009 -0.053,0.018 -0.079,0.028c-0.82,0.308 -1.495,0.913 -1.891,1.695c-0.139,0.276 -0.241,0.57 -0.302,0.874c-0.362,1.8 0.736,3.571 2.508,4.047c0.58,0.155 1.196,0.151 1.78,0.019c0.53,-0.12 1.021,-0.375 1.424,-0.74c0.42,-0.387 0.722,-0.903 0.88,-1.45c0.132,-0.464 0.179,-0.948 0.141,-1.429Z" style="fill:#fff;fill-rule:nonzero;"/></g></svg>