<?xml version="1.0" encoding="UTF-8" standalone="no"?>
<!DOCTYPE svg PUBLIC "-//W3C//DTD SVG 1.1//EN" "http://www.w3.org/Graphics/SVG/1.1/DTD/svg11.dtd">
<svg width="100%" height="100%" viewBox="0 0 262 95" version="1.1" xmlns="http://www.w3.org/2000/svg" xmlns:xlink="http://www.w3.org/1999/xlink" xml:space="preserve" xmlns:serif="http://www.serif.com/" style="fill-rule:evenodd;clip-rule:evenodd;stroke-linejoin:round;stroke-miterlimit:2;">
    <g transform="matrix(1,0,0,1,-230.538,-297.943)">
        <g transform="matrix(0.425926,0,0,0.425926,268.935,191.958)">
            <path d="M-90.148,443.059L-90.148,276.071C-90.148,261.038 -77.943,248.834 -62.911,248.834C-47.878,248.834 -35.674,261.038 -35.674,276.071C-35.674,276.071 -35.673,307.313 -35.672,320.691C-35.673,324.385 -33.351,327.681 -29.872,328.925C-9.619,335.968 13.364,336.141 33.88,329.848C37.968,328.564 40.75,324.775 40.75,320.489C40.776,306.585 40.776,276.702 40.776,276.702C40.776,261.321 52.98,248.834 68.013,248.834C83.045,248.834 95.25,261.321 95.25,276.702L95.25,442.865C95.25,458.004 83.045,470.296 68.013,470.296C52.98,470.296 40.776,458.004 40.776,442.865L40.776,385.675C40.777,384.044 41.677,382.546 43.118,381.781C50.927,377.557 57.626,371.816 63.253,365.76C64.577,364.318 66.618,363.779 68.481,364.377C72.436,365.62 76.774,365.758 81.069,364.608C82.973,364.098 84.104,362.138 83.594,360.235C83.084,358.331 81.125,357.2 79.221,357.71C77.696,358.118 71.595,358.675 67.285,356.277C62.804,353.784 60.129,348.289 59.622,346.394C59.111,344.49 57.152,343.359 55.249,343.869C53.345,344.379 52.214,346.339 52.724,348.242C53.322,350.474 54.227,352.542 55.383,354.413C56.039,355.462 56.192,356.749 55.798,357.922C55.404,359.094 54.505,360.029 53.349,360.468C37.495,366.406 20.33,369.626 2.419,369.626C-14.907,369.626 -31.534,366.614 -46.968,361.085C-48.283,360.601 -49.312,359.553 -49.772,358.229C-50.231,356.904 -50.072,355.444 -49.339,354.25C-48.169,352.446 -47.292,350.422 -46.708,348.242C-46.197,346.339 -47.329,344.379 -49.232,343.869C-51.136,343.359 -53.095,344.49 -53.605,346.394C-54.08,348.165 -56.646,352.762 -60.575,355.046C-65.345,357.819 -71.691,358.115 -73.205,357.71C-75.108,357.2 -77.068,358.331 -77.578,360.235C-78.088,362.138 -76.957,364.098 -75.053,364.608C-70.971,365.701 -66.848,365.631 -63.04,364.599C-61.353,364.11 -59.534,364.615 -58.34,365.904C-52.375,372.228 -45.824,377.639 -38.161,381.86C-36.641,382.685 -35.691,384.272 -35.683,386.001C-35.672,397.882 -35.674,443.059 -35.674,443.059C-35.674,458.091 -47.878,470.296 -62.911,470.296C-77.943,470.296 -90.148,458.091 -90.148,443.059Z" style="fill:white;"/>
        </g>
        <g transform="matrix(1,0,0,1,-2.53446,0)">
            <g transform="matrix(2.94515,0,0,2.94515,-1070.94,-603.196)">
                <g transform="matrix(12,0,0,12,472.248,326.801)">
                    <path d="M0.101,0.014L0.034,-0.016L0.015,-0.087L0.057,-0.62L0.086,-0.688L0.156,-0.707L0.223,-0.678L0.241,-0.606L0.227,-0.42L0.521,-0.4L0.533,-0.587L0.56,-0.655L0.63,-0.675L0.696,-0.647L0.716,-0.576L0.686,-0.041L0.658,0.027L0.587,0.047L0.519,0.018L0.499,-0.053L0.511,-0.249L0.216,-0.269L0.202,-0.073L0.174,-0.005L0.101,0.014Z" style="fill:white;fill-rule:nonzero;"/>
                </g>
                <g transform="matrix(12,0,0,12,481.32,326.801)">
                    <path d="M0.187,0.068L0.085,0.042L0.019,-0.019L-0.002,-0.104L0.032,-0.187L0.125,-0.227L0.293,-0.232L0.349,-0.229L0.345,-0.146L0.289,-0.148L0.223,-0.146L0.184,-0.131L0.171,-0.102L0.186,-0.063L0.233,-0.046L0.279,-0.054L0.313,-0.083L0.327,-0.128L0.332,-0.244L0.316,-0.296L0.252,-0.314L0.197,-0.311L0.129,-0.295L0.082,-0.294L0.053,-0.32L0.045,-0.357L0.06,-0.395L0.101,-0.421L0.191,-0.44L0.266,-0.442L0.402,-0.413L0.48,-0.338L0.502,-0.212L0.494,-0.01L0.47,0.056L0.406,0.076L0.343,0.051L0.324,-0.017L0.325,-0.043L0.331,-0.029L0.305,0.025L0.255,0.059L0.187,0.068Z" style="fill:white;fill-rule:nonzero;"/>
                </g>
                <g transform="matrix(12,0,0,12,487.776,326.801)">
                    <path d="M0.109,0.265L0.043,0.24L0.022,0.172L0.04,-0.338L0.065,-0.403L0.131,-0.424L0.196,-0.399L0.217,-0.332L0.215,-0.274L0.206,-0.324L0.267,-0.394L0.37,-0.419L0.483,-0.385L0.557,-0.296L0.582,-0.157L0.552,-0.021L0.472,0.067L0.357,0.095L0.256,0.066L0.198,-0.004L0.21,-0.003L0.204,0.178L0.178,0.245L0.109,0.265ZM0.303,-0.038L0.352,-0.05L0.386,-0.09L0.4,-0.161L0.376,-0.258L0.31,-0.29L0.261,-0.278L0.226,-0.239L0.212,-0.166L0.235,-0.07L0.303,-0.038Z" style="fill:white;fill-rule:nonzero;"/>
                </g>
                <g transform="matrix(12,0,0,12,494.856,326.801)">
                    <path d="M0.127,0.28L0.06,0.256L0.037,0.189L0.046,-0.322L0.07,-0.388L0.136,-0.41L0.201,-0.386L0.223,-0.32L0.223,-0.262L0.212,-0.311L0.272,-0.383L0.374,-0.409L0.488,-0.378L0.564,-0.29L0.591,-0.152L0.564,-0.015L0.486,0.074L0.371,0.105L0.27,0.078L0.21,0.009L0.222,0.009L0.22,0.191L0.195,0.258L0.127,0.28ZM0.315,-0.027L0.363,-0.04L0.397,-0.081L0.409,-0.152L0.383,-0.249L0.317,-0.279L0.268,-0.266L0.234,-0.226L0.221,-0.154L0.247,-0.057L0.315,-0.027Z" style="fill:white;fill-rule:nonzero;"/>
                </g>
                <g transform="matrix(12,0,0,12,501.78,326.801)">
                    <path d="M0.201,0.283L0.149,0.267L0.125,0.225L0.133,0.17L0.201,0.025L0.202,0.097L0.026,-0.294L0.018,-0.35L0.044,-0.391L0.105,-0.407L0.157,-0.392L0.193,-0.336L0.296,-0.077L0.262,-0.077L0.367,-0.339L0.403,-0.395L0.458,-0.41L0.507,-0.395L0.53,-0.354L0.522,-0.298L0.297,0.215L0.257,0.269L0.201,0.283Z" style="fill:white;fill-rule:nonzero;"/>
                </g>
                <g transform="matrix(12,0,0,12,507.912,326.801)">
                    <path d="M0.172,0.096L0.102,0.073L0.076,0.005L0.066,-0.523L0.09,-0.592L0.158,-0.618L0.404,-0.624C0.47,-0.626 0.539,-0.615 0.592,-0.572C0.641,-0.531 0.661,-0.474 0.663,-0.412L0.638,-0.294L0.555,-0.215L0.417,-0.184L0.424,-0.202L0.473,-0.204L0.551,-0.186L0.609,-0.125L0.663,-0.037L0.681,0.018L0.66,0.064L0.6,0.084L0.535,0.07L0.488,0.022L0.391,-0.142L0.359,-0.172L0.315,-0.179L0.26,-0.178L0.264,0.001L0.242,0.07L0.172,0.096ZM0.256,-0.308L0.38,-0.311L0.461,-0.335L0.487,-0.4L0.457,-0.463L0.375,-0.482L0.252,-0.479L0.256,-0.308Z" style="fill:white;fill-rule:nonzero;"/>
                </g>
                <g transform="matrix(12,0,0,12,515.856,326.801)">
                    <path d="M0.336,0.069L0.189,0.045L0.088,-0.04L0.048,-0.175L0.063,-0.283L0.115,-0.367L0.2,-0.421L0.312,-0.444L0.457,-0.42L0.558,-0.337L0.599,-0.202L0.586,-0.094L0.535,-0.009L0.45,0.046L0.336,0.069ZM0.33,-0.061L0.378,-0.077L0.409,-0.12L0.418,-0.192L0.386,-0.287L0.318,-0.313L0.27,-0.298L0.239,-0.256L0.23,-0.183L0.261,-0.088L0.33,-0.061Z" style="fill:white;fill-rule:nonzero;"/>
                </g>
                <g transform="matrix(12,0,0,12,522.72,326.801)">
                    <path d="M0.286,0.04C0.235,0.043 0.178,0.036 0.138,-0.002C0.098,-0.042 0.086,-0.102 0.083,-0.155L0.058,-0.582L0.077,-0.65L0.141,-0.677L0.208,-0.658L0.236,-0.593L0.263,-0.172L0.282,-0.119L0.321,-0.105L0.336,-0.107L0.352,-0.111L0.379,-0.099L0.391,-0.047L0.381,0.006L0.338,0.032L0.315,0.036L0.286,0.04Z" style="fill:white;fill-rule:nonzero;"/>
                </g>
                <g transform="matrix(12,0,0,12,526.536,326.801)">
                    <path d="M0.293,0.017C0.242,0.021 0.185,0.015 0.145,-0.024C0.105,-0.062 0.092,-0.123 0.088,-0.175L0.059,-0.602L0.077,-0.671L0.14,-0.698L0.208,-0.68L0.237,-0.615L0.268,-0.194L0.287,-0.142L0.327,-0.128L0.341,-0.13L0.358,-0.134L0.385,-0.123L0.398,-0.071L0.387,-0.018L0.345,0.008L0.322,0.013L0.293,0.017Z" style="fill:white;fill-rule:nonzero;"/>
                </g>
            </g>
        </g>
    </g>
</svg>
