<?xml version="1.0" encoding="UTF-8" standalone="no"?>
<!DOCTYPE svg PUBLIC "-//W3C//DTD SVG 1.1//EN" "http://www.w3.org/Graphics/SVG/1.1/DTD/svg11.dtd">
<svg width="100%" height="100%" viewBox="0 0 224 267" version="1.1" xmlns="http://www.w3.org/2000/svg" xmlns:xlink="http://www.w3.org/1999/xlink" xml:space="preserve" xmlns:serif="http://www.serif.com/" style="fill-rule:evenodd;clip-rule:evenodd;stroke-linejoin:round;stroke-miterlimit:2;">
    <g transform="matrix(1,0,0,1,-259.202,-74.6064)">
        <g transform="matrix(1.20307,0,0,1.20307,367.656,-224.757)">
            <path d="M-90.148,443.059L-90.148,276.071C-90.148,261.038 -77.943,248.834 -62.911,248.834C-47.878,248.834 -35.674,261.038 -35.674,276.071C-35.674,276.071 -35.673,315.086 -35.672,324.587C-35.672,325.847 -34.908,326.981 -33.741,327.455C-11.085,336.521 15.563,336.595 38.493,328.309C39.863,327.806 40.773,326.502 40.773,325.043C40.776,314.965 40.776,276.702 40.776,276.702C40.776,261.321 52.98,248.834 68.013,248.834C83.045,248.834 95.25,261.321 95.25,276.702L95.25,442.865C95.25,458.004 83.045,470.296 68.013,470.296C52.98,470.296 40.776,458.004 40.776,442.865L40.776,383.963C40.776,383.373 41.108,382.833 41.635,382.568C50.736,377.944 58.382,371.241 64.625,364.253C65.126,363.689 65.928,363.503 66.626,363.787C71.073,365.545 76.1,365.939 81.069,364.608C82.973,364.098 84.104,362.138 83.594,360.235C83.084,358.331 81.125,357.2 79.221,357.71C77.696,358.118 71.595,358.675 67.285,356.277C62.804,353.784 60.129,348.289 59.622,346.394C59.111,344.49 57.152,343.359 55.249,343.869C53.345,344.379 52.214,346.339 52.724,348.242C53.605,351.532 55.155,354.466 57.188,356.938C57.493,357.299 57.607,357.785 57.493,358.245C57.379,358.704 57.052,359.081 56.613,359.258C39.847,365.949 21.559,369.626 2.419,369.626C-16.296,369.626 -34.196,366.111 -50.657,359.707C-51.156,359.51 -51.53,359.083 -51.659,358.562C-51.787,358.04 -51.655,357.489 -51.305,357.082C-49.202,354.586 -47.607,351.599 -46.708,348.242C-46.197,346.339 -47.329,344.379 -49.232,343.869C-51.136,343.359 -53.095,344.49 -53.605,346.394C-54.08,348.165 -56.646,352.762 -60.575,355.046C-65.345,357.819 -71.691,358.115 -73.205,357.71C-75.108,357.2 -77.068,358.331 -77.578,360.235C-78.088,362.138 -76.957,364.098 -75.053,364.608C-70.361,365.865 -65.615,365.583 -61.355,364.073C-60.719,363.84 -60.005,364.017 -59.552,364.521C-52.893,371.902 -45.481,378.084 -36.584,382.704C-36.028,382.991 -35.678,383.562 -35.675,384.188C-35.672,392.079 -35.674,443.059 -35.674,443.059C-35.674,458.091 -47.878,470.296 -62.911,470.296C-77.943,470.296 -90.148,458.091 -90.148,443.059Z" style="fill:rgb(218,18,125);"/>
        </g>
    </g>
</svg>
