<?xml version="1.0" encoding="UTF-8" standalone="no"?><!DOCTYPE svg PUBLIC "-//W3C//DTD SVG 1.1//EN" "http://www.w3.org/Graphics/SVG/1.1/DTD/svg11.dtd"><svg width="100%" height="100%" viewBox="0 0 1249 387" version="1.1" xmlns="http://www.w3.org/2000/svg" xmlns:xlink="http://www.w3.org/1999/xlink" xml:space="preserve" xmlns:serif="http://www.serif.com/" style="fill-rule:evenodd;clip-rule:evenodd;stroke-linejoin:round;stroke-miterlimit:2;"><g><g><path d="M331.324,243.555c-5.469,-0 -9.671,-1.51 -12.607,-4.53c-2.937,-3.02 -4.405,-7.304 -4.405,-12.852l0,-98.896c0,-5.592 1.468,-9.887 4.405,-12.885c2.936,-2.998 7.138,-4.497 12.607,-4.497c5.469,0 9.651,1.499 12.548,4.497c2.897,2.998 4.346,7.293 4.346,12.885l-0,34.633l53.725,-0l0,-34.633c0,-5.592 1.468,-9.887 4.405,-12.885c2.936,-2.998 7.139,-4.497 12.607,-4.497c5.469,0 9.652,1.499 12.55,4.497c2.898,2.998 4.347,7.293 4.347,12.885l-0,98.896c-0,5.548 -1.449,9.832 -4.347,12.852c-2.898,3.02 -7.081,4.53 -12.55,4.53c-5.468,-0 -9.671,-1.51 -12.607,-4.53c-2.937,-3.02 -4.405,-7.304 -4.405,-12.852l0,-36.361l-53.725,-0l-0,36.361c-0,5.548 -1.418,9.832 -4.253,12.852c-2.836,3.02 -7.049,4.53 -12.641,4.53Z" style="fill:#fff;fill-rule:nonzero;"/><path d="M488.874,243.924c-7.001,0 -13.194,-1.302 -18.579,-3.905c-5.386,-2.604 -9.585,-6.159 -12.596,-10.665c-3.012,-4.507 -4.517,-9.627 -4.517,-15.361c-0,-6.65 1.724,-11.895 5.172,-15.735c3.448,-3.839 9.012,-6.602 16.691,-8.286c7.68,-1.685 17.85,-2.527 30.512,-2.527l10.18,-0l-0,15.54l-10.232,-0c-4.805,-0 -8.758,0.35 -11.86,1.05c-3.102,0.701 -5.391,1.747 -6.867,3.139c-1.476,1.392 -2.214,3.217 -2.214,5.474c0,2.884 1.004,5.246 3.011,7.086c2.007,1.839 4.945,2.759 8.815,2.759c3.04,0 5.757,-0.679 8.151,-2.038c2.393,-1.358 4.317,-3.248 5.771,-5.668c1.453,-2.421 2.18,-5.236 2.18,-8.446l0,-21.361c0,-4.505 -1.118,-7.66 -3.355,-9.466c-2.237,-1.806 -6.125,-2.709 -11.665,-2.709c-3.021,0 -6.358,0.333 -10.011,0.999c-3.653,0.666 -7.798,1.849 -12.433,3.55c-3.285,1.187 -6.115,1.358 -8.49,0.511c-2.375,-0.847 -4.193,-2.295 -5.454,-4.345c-1.26,-2.05 -1.87,-4.314 -1.831,-6.79c0.039,-2.477 0.827,-4.844 2.362,-7.102c1.536,-2.258 3.946,-3.975 7.231,-5.151c5.82,-2.182 11.249,-3.667 16.287,-4.456c5.038,-0.789 9.633,-1.183 13.785,-1.183c10.125,-0 18.464,1.452 25.016,4.358c6.552,2.905 11.46,7.354 14.726,13.346c3.265,5.992 4.898,13.651 4.898,22.978l-0,37.375c-0,5.391 -1.298,9.516 -3.893,12.373c-2.594,2.858 -6.362,4.287 -11.304,4.287c-4.941,-0 -8.74,-1.429 -11.396,-4.287c-2.657,-2.857 -3.985,-6.982 -3.985,-12.373l0,-4.737l1.123,2.477c-0.625,3.916 -2.063,7.306 -4.312,10.171c-2.25,2.865 -5.146,5.101 -8.688,6.708c-3.542,1.607 -7.619,2.41 -12.229,2.41Z" style="fill:#fff;fill-rule:nonzero;"/><path d="M578.588,276.805c-5.267,-0 -9.318,-1.418 -12.153,-4.253c-2.835,-2.835 -4.253,-6.949 -4.253,-12.341l-0,-94.414c-0,-5.389 1.398,-9.502 4.194,-12.337c2.796,-2.835 6.765,-4.253 11.909,-4.253c5.268,-0 9.3,1.418 12.096,4.253c2.796,2.835 4.194,6.948 4.194,12.337l-0,10.637l-2.032,-9.081c1.768,-5.495 5.398,-9.955 10.889,-13.379c5.49,-3.424 11.739,-5.136 18.745,-5.136c7.802,-0 14.69,1.908 20.663,5.726c5.973,3.818 10.641,9.265 14.006,16.341c3.364,7.076 5.046,15.557 5.046,25.441c0,9.764 -1.682,18.225 -5.046,25.385c-3.365,7.16 -8.022,12.649 -13.973,16.467c-5.951,3.817 -12.849,5.726 -20.696,5.726c-6.804,0 -12.921,-1.623 -18.35,-4.868c-5.429,-3.245 -9.089,-7.413 -10.981,-12.505l2.217,0l-0,33.66c-0,5.392 -1.429,9.506 -4.286,12.341c-2.858,2.835 -6.921,4.253 -12.189,4.253Zm33.111,-57.155c3.377,0 6.338,-0.813 8.882,-2.44c2.543,-1.627 4.554,-4.155 6.031,-7.582c1.476,-3.428 2.215,-7.856 2.215,-13.282c-0,-8.201 -1.602,-14.124 -4.806,-17.769c-3.204,-3.646 -7.311,-5.469 -12.322,-5.469c-3.298,0 -6.238,0.803 -8.822,2.408c-2.583,1.604 -4.612,4.102 -6.088,7.491c-1.476,3.39 -2.214,7.836 -2.214,13.339c-0,8.157 1.602,14.08 4.806,17.77c3.203,3.689 7.31,5.534 12.318,5.534Z" style="fill:#fff;fill-rule:nonzero;"/><path d="M693.196,276.805c-5.266,-0 -9.317,-1.418 -12.152,-4.253c-2.836,-2.835 -4.253,-6.949 -4.253,-12.341l-0,-94.414c-0,-5.389 1.398,-9.502 4.194,-12.337c2.795,-2.835 6.765,-4.253 11.908,-4.253c5.269,-0 9.301,1.418 12.097,4.253c2.796,2.835 4.194,6.948 4.194,12.337l-0,10.637l-2.032,-9.081c1.768,-5.495 5.398,-9.955 10.888,-13.379c5.491,-3.424 11.739,-5.136 18.745,-5.136c7.803,-0 14.691,1.908 20.664,5.726c5.972,3.818 10.641,9.265 14.005,16.341c3.365,7.076 5.047,15.557 5.047,25.441c0,9.764 -1.682,18.225 -5.047,25.385c-3.364,7.16 -8.022,12.649 -13.972,16.467c-5.951,3.817 -12.85,5.726 -20.697,5.726c-6.804,0 -12.92,-1.623 -18.349,-4.868c-5.429,-3.245 -9.09,-7.413 -10.981,-12.505l2.217,0l-0,33.66c-0,5.392 -1.429,9.506 -4.287,12.341c-2.857,2.835 -6.92,4.253 -12.189,4.253Zm33.112,-57.155c3.377,0 6.338,-0.813 8.881,-2.44c2.544,-1.627 4.554,-4.155 6.031,-7.582c1.477,-3.428 2.216,-7.856 2.216,-13.282c-0,-8.201 -1.602,-14.124 -4.806,-17.769c-3.204,-3.646 -7.311,-5.469 -12.322,-5.469c-3.298,0 -6.239,0.803 -8.822,2.408c-2.583,1.604 -4.613,4.102 -6.088,7.491c-1.476,3.39 -2.214,7.836 -2.214,13.339c-0,8.157 1.602,14.08 4.805,17.77c3.204,3.689 7.31,5.534 12.319,5.534Z" style="fill:#fff;fill-rule:nonzero;"/><path d="M816.92,276.805c-3.731,-0 -6.793,-0.983 -9.185,-2.95c-2.393,-1.966 -3.861,-4.552 -4.405,-7.757c-0.544,-3.205 0.014,-6.612 1.673,-10.222l12.324,-26.713l0,13.145l-31.614,-72.106c-1.581,-3.733 -2.089,-7.182 -1.522,-10.347c0.567,-3.166 2.197,-5.732 4.892,-7.698c2.695,-1.967 6.374,-2.95 11.036,-2.95c3.933,-0 7.096,0.902 9.489,2.706c2.392,1.804 4.581,5.317 6.565,10.539l18.567,47.979l-6.249,0l19.474,-48.279c1.984,-4.943 4.254,-8.337 6.809,-10.18c2.555,-1.843 5.962,-2.765 10.221,-2.765c3.652,-0 6.593,0.983 8.823,2.95c2.23,1.966 3.609,4.521 4.136,7.664c0.527,3.144 -0.061,6.581 -1.763,10.312l-41.941,94.267c-2.152,4.862 -4.564,8.145 -7.236,9.849c-2.673,1.704 -6.038,2.556 -10.094,2.556Z" style="fill:#fff;fill-rule:nonzero;"/><path d="M909.7,243.555c-5.468,-0 -9.671,-1.51 -12.607,-4.53c-2.936,-3.02 -4.404,-7.266 -4.404,-12.736l-0,-97.482c-0,-5.592 1.498,-9.856 4.496,-12.793c2.998,-2.936 7.232,-4.404 12.7,-4.404l45.462,-0c14.757,-0 26.152,3.614 34.186,10.842c8.033,7.229 12.05,17.196 12.05,29.904c0,8.318 -1.814,15.51 -5.442,21.574c-3.628,6.064 -8.865,10.733 -15.712,14.008c-6.846,3.275 -15.207,4.913 -25.082,4.913l1.426,-3.244l8.928,-0c5.283,-0 9.941,1.251 13.974,3.753c4.032,2.503 7.425,6.324 10.178,11.463l9.135,16.712c2.028,3.608 2.961,7.095 2.799,10.463c-0.163,3.367 -1.48,6.135 -3.95,8.304c-2.471,2.168 -6.156,3.253 -11.055,3.253c-4.739,-0 -8.628,-0.984 -11.665,-2.95c-3.037,-1.967 -5.71,-5.057 -8.019,-9.271l-16.888,-30.938c-1.43,-2.694 -3.28,-4.553 -5.551,-5.575c-2.27,-1.023 -4.88,-1.534 -7.83,-1.534l-10.235,-0l-0,33.002c-0,5.47 -1.418,9.716 -4.253,12.736c-2.835,3.02 -7.049,4.53 -12.641,4.53Zm16.894,-74.305l22.565,-0c6.531,-0 11.511,-1.303 14.94,-3.909c3.429,-2.605 5.143,-6.592 5.143,-11.96c0,-5.244 -1.714,-9.168 -5.143,-11.774c-3.429,-2.605 -8.409,-3.908 -14.94,-3.908l-22.565,0l-0,31.551Z" style="fill:#fff;fill-rule:nonzero;"/><path d="M1065.03,243.924c-10.065,0 -18.861,-1.909 -26.386,-5.726c-7.526,-3.818 -13.375,-9.307 -17.546,-16.467c-4.172,-7.16 -6.258,-15.621 -6.258,-25.385c0,-7.345 1.176,-13.939 3.527,-19.783c2.352,-5.843 5.736,-10.848 10.154,-15.013c4.418,-4.165 9.715,-7.325 15.891,-9.48c6.176,-2.155 13.048,-3.232 20.618,-3.232c10.147,-0 18.963,1.908 26.449,5.726c7.486,3.818 13.315,9.276 17.487,16.374c4.171,7.098 6.257,15.568 6.257,25.408c0,7.345 -1.176,13.951 -3.528,19.818c-2.353,5.866 -5.737,10.882 -10.154,15.047c-4.417,4.165 -9.714,7.325 -15.891,9.48c-6.177,2.155 -13.05,3.233 -20.62,3.233Zm0,-24.274c3.377,0 6.338,-0.813 8.881,-2.44c2.544,-1.627 4.554,-4.155 6.031,-7.582c1.477,-3.428 2.216,-7.856 2.216,-13.282c-0,-8.201 -1.602,-14.124 -4.806,-17.769c-3.204,-3.646 -7.311,-5.469 -12.322,-5.469c-3.298,0 -6.239,0.803 -8.822,2.408c-2.583,1.604 -4.613,4.102 -6.088,7.491c-1.476,3.39 -2.214,7.836 -2.214,13.339c-0,8.157 1.602,14.08 4.805,17.77c3.204,3.689 7.31,5.534 12.319,5.534Z" style="fill:#fff;fill-rule:nonzero;"/><path d="M1164.74,243.924c-11.874,0 -20.613,-3.181 -26.217,-9.542c-5.605,-6.362 -8.407,-15.954 -8.407,-28.777l0,-79.116c0,-5.392 1.418,-9.505 4.253,-12.341c2.836,-2.835 6.887,-4.253 12.153,-4.253c5.269,0 9.332,1.418 12.189,4.253c2.857,2.836 4.286,6.949 4.286,12.341l0,78.126c0,4.486 0.906,7.768 2.718,9.849c1.811,2.08 4.108,3.12 6.891,3.12c0.906,-0 1.829,-0.09 2.769,-0.27c0.94,-0.18 1.92,-0.292 2.94,-0.337c2.195,-0.088 3.798,0.669 4.807,2.272c1.009,1.603 1.514,4.897 1.514,9.883c-0,4.258 -0.852,7.466 -2.555,9.623c-1.703,2.157 -4.324,3.577 -7.865,4.26c-0.997,0.123 -2.428,0.305 -4.293,0.547c-1.866,0.241 -3.593,0.362 -5.183,0.362Z" style="fill:#fff;fill-rule:nonzero;"/><path d="M1228.98,243.924c-11.874,0 -20.613,-3.181 -26.217,-9.542c-5.605,-6.362 -8.407,-15.954 -8.407,-28.777l0,-79.116c0,-5.392 1.418,-9.505 4.253,-12.341c2.835,-2.835 6.886,-4.253 12.153,-4.253c5.268,0 9.331,1.418 12.189,4.253c2.857,2.836 4.286,6.949 4.286,12.341l-0,78.126c-0,4.486 0.906,7.768 2.717,9.849c1.812,2.08 4.109,3.12 6.891,3.12c0.907,-0 1.83,-0.09 2.77,-0.27c0.94,-0.18 1.92,-0.292 2.94,-0.337c2.195,-0.088 3.797,0.669 4.807,2.272c1.009,1.603 1.514,4.897 1.514,9.883c-0,4.258 -0.852,7.466 -2.555,9.623c-1.703,2.157 -4.324,3.577 -7.865,4.26c-0.997,0.123 -2.428,0.305 -4.293,0.547c-1.866,0.241 -3.593,0.362 -5.183,0.362Z" style="fill:#fff;fill-rule:nonzero;"/></g><g><path d="M23.271,259.244l-0,-226.535l69.013,0.123l0,61.689c12.363,-7.552 34.004,-10.958 50.002,-11.585c0.841,0.118 1.696,0.193 2.563,0.223c62.882,2.204 123.173,54.777 120.56,129.318c-0.056,1.602 0.044,3.174 0.286,4.7l-0,31.839l-67.791,0l-0,-50.798c-0,-6.718 1.248,-80.605 -53.421,-80.605c-54.67,0 -51.803,68.455 -51.803,80.18c0,19.827 -0.192,46.689 -0.235,52.502c4.925,1.69 9.777,3.884 14.486,6.603c8.416,4.859 11.304,15.637 6.445,24.054c-4.859,8.416 -15.638,11.304 -24.054,6.445c-20.189,-11.656 -45.594,-6.682 -56.463,12.145c-4.86,8.416 -15.638,11.304 -24.054,6.445c-8.417,-4.859 -11.305,-15.638 -6.446,-24.054c5.342,-9.253 12.531,-16.877 20.912,-22.689Z" style="fill:#fff;"/><ellipse cx="231.855" cy="249.125" rx="33.839" ry="32.232" style="fill:#fff;"/><ellipse cx="57.74" cy="32.832" rx="34.469" ry="32.832" style="fill:#fff;"/><path d="M218.794,314.728c8.508,-8.509 22.324,-8.509 30.833,-0c8.508,8.508 8.508,22.324 -0,30.832c-55.152,55.152 -144.704,55.152 -199.856,0c-8.508,-8.508 -8.508,-22.324 0,-30.832c8.509,-8.509 22.324,-8.509 30.833,-0c38.134,38.134 100.055,38.134 138.19,-0Z" style="fill:#fff;"/></g></g></svg>