<?xml version="1.0" encoding="UTF-8" standalone="no"?><!DOCTYPE svg PUBLIC "-//W3C//DTD SVG 1.1//EN" "http://www.w3.org/Graphics/SVG/1.1/DTD/svg11.dtd"><svg width="100%" height="100%" viewBox="0 0 120 38" version="1.1" xmlns="http://www.w3.org/2000/svg" xmlns:xlink="http://www.w3.org/1999/xlink" xml:space="preserve" xmlns:serif="http://www.serif.com/" style="fill-rule:evenodd;clip-rule:evenodd;stroke-linejoin:round;stroke-miterlimit:2;"><g><g><path d="M31.807,23.381c-0.525,0 -0.928,-0.145 -1.21,-0.435c-0.282,-0.29 -0.423,-0.701 -0.423,-1.233l-0,-9.494c-0,-0.537 0.141,-0.95 0.423,-1.237c0.282,-0.288 0.685,-0.432 1.21,-0.432c0.525,-0 0.927,0.144 1.205,0.432c0.278,0.287 0.417,0.7 0.417,1.237l-0,3.324l5.158,0l-0,-3.324c-0,-0.537 0.14,-0.95 0.422,-1.237c0.282,-0.288 0.686,-0.432 1.211,-0.432c0.525,-0 0.926,0.144 1.204,0.432c0.279,0.287 0.418,0.7 0.418,1.237l-0,9.494c-0,0.532 -0.139,0.943 -0.418,1.233c-0.278,0.29 -0.679,0.435 -1.204,0.435c-0.525,0 -0.929,-0.145 -1.211,-0.435c-0.282,-0.29 -0.422,-0.701 -0.422,-1.233l-0,-3.491l-5.158,-0l-0,3.491c-0,0.532 -0.136,0.943 -0.408,1.233c-0.273,0.29 -0.677,0.435 -1.214,0.435Z" style="fill:#da127d;fill-rule:nonzero;"/><path d="M46.932,23.417c-0.672,-0 -1.267,-0.125 -1.784,-0.375c-0.517,-0.25 -0.92,-0.591 -1.209,-1.024c-0.289,-0.433 -0.434,-0.924 -0.434,-1.475c0,-0.638 0.166,-1.142 0.497,-1.51c0.331,-0.369 0.865,-0.634 1.602,-0.796c0.738,-0.161 1.714,-0.242 2.929,-0.242l0.978,-0l-0,1.492l-0.983,-0c-0.461,-0 -0.84,0.033 -1.138,0.1c-0.298,0.068 -0.518,0.168 -0.659,0.302c-0.142,0.133 -0.213,0.309 -0.213,0.525c0,0.277 0.097,0.504 0.289,0.68c0.193,0.177 0.475,0.265 0.846,0.265c0.292,0 0.553,-0.065 0.783,-0.195c0.23,-0.131 0.414,-0.312 0.554,-0.544c0.139,-0.233 0.209,-0.503 0.209,-0.811l0,-2.051c0,-0.432 -0.107,-0.735 -0.322,-0.909c-0.215,-0.173 -0.588,-0.26 -1.12,-0.26c-0.29,0 -0.61,0.032 -0.961,0.096c-0.35,0.064 -0.748,0.178 -1.193,0.341c-0.316,0.114 -0.587,0.13 -0.815,0.049c-0.228,-0.081 -0.403,-0.22 -0.524,-0.417c-0.121,-0.197 -0.18,-0.414 -0.176,-0.652c0.004,-0.238 0.08,-0.465 0.227,-0.682c0.147,-0.216 0.379,-0.381 0.694,-0.494c0.559,-0.21 1.08,-0.352 1.564,-0.428c0.483,-0.076 0.924,-0.114 1.323,-0.114c0.972,0 1.773,0.14 2.402,0.419c0.629,0.279 1.1,0.706 1.413,1.281c0.314,0.575 0.471,1.311 0.471,2.206l-0,3.588c-0,0.518 -0.125,0.913 -0.374,1.188c-0.249,0.274 -0.611,0.411 -1.085,0.411c-0.475,0 -0.839,-0.137 -1.094,-0.411c-0.255,-0.275 -0.383,-0.67 -0.383,-1.188l0,-0.455l0.108,0.238c-0.06,0.376 -0.198,0.701 -0.414,0.976c-0.216,0.275 -0.494,0.49 -0.834,0.644c-0.34,0.155 -0.732,0.232 -1.174,0.232Z" style="fill:#da127d;fill-rule:nonzero;"/><path d="M55.544,26.573c-0.505,0 -0.894,-0.136 -1.166,-0.408c-0.272,-0.272 -0.409,-0.667 -0.409,-1.185l0,-9.063c0,-0.518 0.135,-0.913 0.403,-1.185c0.268,-0.272 0.65,-0.408 1.143,-0.408c0.506,-0 0.893,0.136 1.162,0.408c0.268,0.272 0.402,0.667 0.402,1.185l0,1.021l-0.195,-0.872c0.17,-0.528 0.518,-0.956 1.045,-1.285c0.528,-0.328 1.127,-0.493 1.8,-0.493c0.749,0 1.41,0.184 1.984,0.55c0.573,0.367 1.021,0.89 1.344,1.569c0.323,0.679 0.485,1.493 0.485,2.442c-0,0.938 -0.162,1.75 -0.485,2.437c-0.323,0.688 -0.77,1.214 -1.341,1.581c-0.571,0.366 -1.234,0.55 -1.987,0.55c-0.653,-0 -1.24,-0.156 -1.762,-0.468c-0.521,-0.311 -0.872,-0.711 -1.054,-1.2l0.213,-0l0,3.231c0,0.518 -0.137,0.913 -0.411,1.185c-0.275,0.272 -0.665,0.408 -1.171,0.408Zm3.179,-5.487c0.324,0 0.609,-0.078 0.853,-0.234c0.244,-0.156 0.437,-0.399 0.579,-0.728c0.141,-0.329 0.212,-0.754 0.212,-1.275c0,-0.787 -0.153,-1.356 -0.461,-1.706c-0.308,-0.35 -0.702,-0.525 -1.183,-0.525c-0.316,0 -0.599,0.077 -0.847,0.232c-0.248,0.154 -0.443,0.393 -0.584,0.719c-0.142,0.325 -0.213,0.752 -0.213,1.28c0,0.783 0.154,1.352 0.462,1.706c0.307,0.354 0.701,0.531 1.182,0.531Z" style="fill:#da127d;fill-rule:nonzero;"/><path d="M66.547,26.573c-0.506,0 -0.895,-0.136 -1.167,-0.408c-0.272,-0.272 -0.408,-0.667 -0.408,-1.185l-0,-9.063c-0,-0.518 0.134,-0.913 0.403,-1.185c0.268,-0.272 0.649,-0.408 1.143,-0.408c0.506,-0 0.893,0.136 1.161,0.408c0.268,0.272 0.403,0.667 0.403,1.185l-0,1.021l-0.195,-0.872c0.169,-0.528 0.518,-0.956 1.045,-1.285c0.527,-0.328 1.127,-0.493 1.799,-0.493c0.749,0 1.411,0.184 1.984,0.55c0.573,0.367 1.022,0.89 1.345,1.569c0.323,0.679 0.484,1.493 0.484,2.442c0,0.938 -0.161,1.75 -0.484,2.437c-0.323,0.688 -0.77,1.214 -1.342,1.581c-0.571,0.366 -1.233,0.55 -1.987,0.55c-0.653,-0 -1.24,-0.156 -1.761,-0.468c-0.521,-0.311 -0.873,-0.711 -1.054,-1.2l0.212,-0l0,3.231c0,0.518 -0.137,0.913 -0.411,1.185c-0.274,0.272 -0.664,0.408 -1.17,0.408Zm3.179,-5.487c0.324,0 0.608,-0.078 0.852,-0.234c0.244,-0.156 0.437,-0.399 0.579,-0.728c0.142,-0.329 0.213,-0.754 0.213,-1.275c-0,-0.787 -0.154,-1.356 -0.462,-1.706c-0.307,-0.35 -0.701,-0.525 -1.182,-0.525c-0.317,0 -0.599,0.077 -0.847,0.232c-0.248,0.154 -0.443,0.393 -0.585,0.719c-0.142,0.325 -0.212,0.752 -0.212,1.28c-0,0.783 0.153,1.352 0.461,1.706c0.308,0.354 0.702,0.531 1.183,0.531Z" style="fill:#da127d;fill-rule:nonzero;"/><path d="M78.424,26.573c-0.358,0 -0.652,-0.094 -0.881,-0.283c-0.23,-0.189 -0.371,-0.437 -0.423,-0.745c-0.053,-0.307 0.001,-0.634 0.16,-0.981l1.183,-2.564l0,1.262l-3.035,-6.923c-0.151,-0.358 -0.2,-0.689 -0.146,-0.993c0.055,-0.304 0.211,-0.55 0.47,-0.739c0.259,-0.189 0.612,-0.283 1.059,-0.283c0.378,-0 0.682,0.086 0.911,0.26c0.23,0.173 0.44,0.51 0.631,1.011l1.782,4.606l-0.6,0l1.87,-4.634c0.19,-0.475 0.408,-0.801 0.653,-0.978c0.246,-0.177 0.573,-0.265 0.981,-0.265c0.351,-0 0.633,0.094 0.848,0.283c0.214,0.189 0.346,0.434 0.397,0.736c0.05,0.302 -0.006,0.632 -0.17,0.99l-4.026,9.049c-0.207,0.467 -0.438,0.782 -0.695,0.946c-0.256,0.163 -0.579,0.245 -0.969,0.245Z" style="fill:#da127d;fill-rule:nonzero;"/><path d="M87.331,23.381c-0.525,0 -0.928,-0.145 -1.21,-0.435c-0.282,-0.29 -0.423,-0.697 -0.423,-1.222l0,-9.359c0,-0.536 0.144,-0.946 0.432,-1.228c0.288,-0.282 0.694,-0.422 1.219,-0.422l4.364,-0c1.417,-0 2.511,0.347 3.282,1.04c0.771,0.694 1.157,1.651 1.157,2.871c-0,0.799 -0.174,1.489 -0.522,2.071c-0.349,0.582 -0.852,1.031 -1.509,1.345c-0.657,0.314 -1.46,0.472 -2.408,0.472l0.137,-0.312l0.857,0c0.508,0 0.955,0.12 1.342,0.361c0.387,0.24 0.713,0.607 0.977,1.1l0.877,1.604c0.195,0.347 0.284,0.682 0.269,1.005c-0.016,0.323 -0.142,0.589 -0.38,0.797c-0.237,0.208 -0.591,0.312 -1.061,0.312c-0.455,0 -0.828,-0.094 -1.12,-0.283c-0.291,-0.189 -0.548,-0.485 -0.77,-0.89l-1.621,-2.97c-0.137,-0.259 -0.315,-0.437 -0.533,-0.535c-0.218,-0.098 -0.468,-0.147 -0.751,-0.147l-0.983,-0l0,3.168c0,0.525 -0.136,0.932 -0.408,1.222c-0.272,0.29 -0.677,0.435 -1.214,0.435Zm1.622,-7.133l2.166,-0c0.627,-0 1.105,-0.125 1.434,-0.375c0.33,-0.25 0.494,-0.633 0.494,-1.148c0,-0.504 -0.164,-0.881 -0.494,-1.131c-0.329,-0.25 -0.807,-0.375 -1.434,-0.375l-2.166,0l0,3.029Z" style="fill:#da127d;fill-rule:nonzero;"/><path d="M102.243,23.417c-0.966,-0 -1.811,-0.184 -2.533,-0.55c-0.723,-0.367 -1.284,-0.893 -1.685,-1.581c-0.4,-0.687 -0.6,-1.499 -0.6,-2.437c-0,-0.705 0.112,-1.338 0.338,-1.899c0.226,-0.561 0.551,-1.041 0.975,-1.441c0.424,-0.4 0.933,-0.703 1.525,-0.91c0.593,-0.207 1.253,-0.311 1.98,-0.311c0.974,0 1.82,0.184 2.539,0.55c0.719,0.367 1.278,0.891 1.679,1.572c0.4,0.681 0.6,1.495 0.6,2.439c0,0.705 -0.113,1.339 -0.338,1.903c-0.226,0.563 -0.551,1.044 -0.975,1.444c-0.424,0.4 -0.933,0.703 -1.526,0.91c-0.593,0.207 -1.252,0.311 -1.979,0.311Zm-0,-2.331c0.324,0 0.608,-0.078 0.852,-0.234c0.245,-0.156 0.438,-0.399 0.579,-0.728c0.142,-0.329 0.213,-0.754 0.213,-1.275c0,-0.787 -0.154,-1.356 -0.461,-1.706c-0.308,-0.35 -0.702,-0.525 -1.183,-0.525c-0.317,0 -0.599,0.077 -0.847,0.232c-0.248,0.154 -0.443,0.393 -0.585,0.719c-0.141,0.325 -0.212,0.752 -0.212,1.28c-0,0.783 0.154,1.352 0.461,1.706c0.308,0.354 0.702,0.531 1.183,0.531Z" style="fill:#da127d;fill-rule:nonzero;"/><path d="M111.815,23.417c-1.139,-0 -1.978,-0.306 -2.516,-0.916c-0.538,-0.611 -0.807,-1.532 -0.807,-2.763l-0,-7.595c-0,-0.518 0.136,-0.913 0.408,-1.185c0.272,-0.272 0.661,-0.408 1.167,-0.408c0.505,-0 0.895,0.136 1.17,0.408c0.274,0.272 0.411,0.667 0.411,1.185l0,7.5c0,0.431 0.087,0.746 0.261,0.945c0.174,0.2 0.394,0.3 0.662,0.3c0.087,0 0.175,-0.009 0.265,-0.026c0.091,-0.017 0.185,-0.028 0.283,-0.032c0.21,-0.009 0.364,0.064 0.461,0.218c0.097,0.154 0.145,0.47 0.145,0.949c0,0.408 -0.081,0.716 -0.245,0.923c-0.163,0.208 -0.415,0.344 -0.755,0.409c-0.096,0.012 -0.233,0.03 -0.412,0.053c-0.179,0.023 -0.345,0.035 -0.498,0.035Z" style="fill:#da127d;fill-rule:nonzero;"/><path d="M117.982,23.417c-1.14,-0 -1.979,-0.306 -2.517,-0.916c-0.538,-0.611 -0.807,-1.532 -0.807,-2.763l0,-7.595c0,-0.518 0.136,-0.913 0.408,-1.185c0.273,-0.272 0.661,-0.408 1.167,-0.408c0.506,-0 0.896,0.136 1.17,0.408c0.274,0.272 0.412,0.667 0.412,1.185l-0,7.5c-0,0.431 0.087,0.746 0.261,0.945c0.173,0.2 0.394,0.3 0.661,0.3c0.087,0 0.176,-0.009 0.266,-0.026c0.09,-0.017 0.184,-0.028 0.282,-0.032c0.211,-0.009 0.365,0.064 0.462,0.218c0.097,0.154 0.145,0.47 0.145,0.949c-0,0.408 -0.082,0.716 -0.245,0.923c-0.164,0.208 -0.415,0.344 -0.755,0.409c-0.096,0.012 -0.233,0.03 -0.412,0.053c-0.18,0.023 -0.345,0.035 -0.498,0.035Z" style="fill:#da127d;fill-rule:nonzero;"/></g><g><path d="M2.234,24.887l-0,-21.747l6.625,0.012l0,5.922c1.187,-0.725 3.265,-1.052 4.8,-1.112c0.081,0.011 0.163,0.018 0.246,0.021c6.037,0.212 11.825,5.259 11.574,12.415c-0.005,0.154 0.004,0.304 0.028,0.451l-0,3.057l-6.508,-0l-0,-4.877c-0,-0.645 0.12,-7.738 -5.129,-7.738c-5.248,-0 -4.973,6.571 -4.973,7.697c0,1.903 -0.018,4.482 -0.022,5.04c0.473,0.163 0.938,0.373 1.39,0.634c0.808,0.467 1.086,1.501 0.619,2.309c-0.466,0.808 -1.501,1.086 -2.309,0.619c-1.938,-1.119 -4.377,-0.641 -5.421,1.166c-0.466,0.808 -1.501,1.085 -2.309,0.619c-0.808,-0.467 -1.085,-1.501 -0.618,-2.309c0.512,-0.889 1.202,-1.621 2.007,-2.179Z" style="fill:#da127d;"/><ellipse cx="22.258" cy="23.916" rx="3.249" ry="3.094" style="fill:#da127d;"/><ellipse cx="5.543" cy="3.152" rx="3.309" ry="3.152" style="fill:#da127d;"/><path d="M21.004,30.214c0.817,-0.817 2.143,-0.817 2.96,-0c0.817,0.817 0.817,2.143 0,2.96c-5.294,5.294 -13.891,5.294 -19.186,-0c-0.817,-0.817 -0.817,-2.143 0,-2.96c0.817,-0.817 2.143,-0.817 2.96,-0c3.661,3.661 9.605,3.661 13.266,-0Z" style="fill:#da127d;"/></g></g></svg>