<?xml version="1.0" encoding="UTF-8" standalone="no"?>
<!DOCTYPE svg PUBLIC "-//W3C//DTD SVG 1.1//EN" "http://www.w3.org/Graphics/SVG/1.1/DTD/svg11.dtd">
<svg width="100%" height="100%" viewBox="0 0 2791 585" version="1.1" xmlns="http://www.w3.org/2000/svg" xmlns:xlink="http://www.w3.org/1999/xlink" xml:space="preserve" xmlns:serif="http://www.serif.com/" style="fill-rule:evenodd;clip-rule:evenodd;stroke-linejoin:round;stroke-miterlimit:2;">
    <g transform="matrix(1,0,0,1,-1104.54,-207.736)">
        <g>
            <g transform="matrix(4.16667,0,0,4.16667,1380.11,741.065)">
                <path d="M0,0.211L1.682,0.211C3.466,0.245 4.831,0.211 5.777,-0.035C7.702,-0.491 8.753,-2.451 8.788,-4.27C8.822,-6.091 7.947,-7.211 6.827,-7.808C5.811,-8.332 4.691,-8.472 3.292,-8.472C2.557,-8.472 0.667,-8.472 -0.069,-8.437C-0.069,-7.106 -0.035,-4.936 -0.035,-2.696C-0.035,-1.75 0,-0.804 0,0.211M-3.991,-7.035C-3.991,-8.086 -4.096,-9.313 -3.92,-10.256C-3.674,-11.168 -2.938,-11.727 -1.89,-11.798C-0.804,-11.904 1.61,-11.904 3.5,-11.937C5.741,-11.937 7.878,-11.447 9.523,-10.361C11.482,-9.067 12.638,-7.035 12.602,-4.061C12.533,-0.735 10.292,2.59 6.861,3.395C5.673,3.711 2.765,3.711 1.052,3.711L-0.069,3.711C-0.069,5.846 0,7.912 0,10.398C0,11.657 -0.909,12.148 -2.029,12.148C-3.29,12.148 -3.991,11.518 -3.991,10.538C-3.956,6.126 -3.956,1.961 -3.92,-2.836C-3.92,-3.92 -3.956,-5.986 -3.991,-7.035" style="fill:white;fill-rule:nonzero;"/>
            </g>
            <g transform="matrix(4.16667,0,0,4.16667,1556.45,698.319)">
                <path d="M0,20.657C0,21.88 -0.736,22.37 -2.031,22.37C-3.187,22.37 -3.991,21.811 -3.991,20.657L-3.991,17.715L-4.027,12.499C-7.597,12.499 -11.378,12.57 -15.158,12.57L-15.087,20.76C-15.087,21.916 -16.033,22.37 -17.153,22.37C-18.24,22.37 -19.081,21.916 -19.081,20.725C-19.081,16.561 -18.938,12.359 -19.009,8.195L-19.149,0.177C-19.149,-1.049 -18.413,-1.608 -17.084,-1.608C-16.033,-1.608 -15.192,-1.155 -15.192,-0.102C-15.158,2.068 -15.192,3.433 -15.158,8.999C-14.668,8.999 -13.828,9.032 -11.798,9.032C-9.942,9.032 -7.667,8.999 -5.777,8.999L-3.991,8.964C-3.991,6.022 -4.027,2.312 -4.027,0.212C-3.991,-1.188 -3.221,-1.713 -2.031,-1.713C-0.806,-1.713 -0.105,-1.083 -0.105,0.177C-0.105,4.062 -0.105,5.918 -0.14,10.504L0,20.657Z" style="fill:white;fill-rule:nonzero;"/>
            </g>
            <g transform="matrix(4.16667,0,0,4.16667,1619.75,791.238)">
                <path d="M0,-23.874C0.384,-23.874 1.015,-23.874 1.54,-23.839C5.915,-23.839 8.471,-23.909 10.185,-23.909C11.516,-23.909 12.077,-23.243 12.077,-22.334C12.111,-21.634 11.901,-20.793 10.991,-20.584C9.452,-20.513 5.775,-20.548 2.905,-20.548L1.366,-20.548L1.366,-17.187L1.329,-13.897L1.329,-13.441L2.731,-13.441C3.78,-13.441 7.069,-13.513 8.4,-13.546C9.731,-13.546 10.573,-13.335 10.535,-11.865C10.535,-10.921 10.116,-10.221 8.717,-10.221C7.175,-10.221 2.66,-10.186 1.26,-10.186C1.224,-9.486 1.224,-8.682 1.224,-7.945C1.224,-6.509 1.189,-4.936 1.189,-3.499C2.871,-3.465 5.601,-3.499 9.169,-3.536C9.871,-3.57 10.327,-3.604 10.886,-3.604C11.973,-3.604 12.425,-2.94 12.425,-1.889C12.425,-0.946 12.077,-0.071 10.467,-0.033C8.12,0.035 5.251,-0.033 1.049,-0.033C-1.821,-0.033 -2.556,-0.315 -2.662,-2.24L-2.662,-3.536C-2.662,-3.709 -2.521,-8.017 -2.521,-13.581C-2.521,-16.417 -2.485,-19.218 -2.485,-22.089C-2.417,-23.417 -1.436,-23.874 0,-23.874" style="fill:white;fill-rule:nonzero;"/>
            </g>
            <g transform="matrix(4.16667,0,0,4.16667,1725.49,691.618)">
                <path d="M0,23.944C-1.189,23.944 -1.996,23.454 -2.029,22.194C-2.029,21.598 -2.029,20.059 -1.996,13.443C-1.962,10.222 -1.996,8.857 -1.996,5.602C-1.996,4.622 -2.029,3.151 -1.996,1.751C-1.996,0.631 -0.804,0 0.35,0C1.505,0 2.134,0.771 2.836,1.751L10.994,13.267L13.792,17.257C13.758,15.439 13.722,12.636 13.722,10.152L13.652,2.449C13.619,0.91 14.038,0 15.648,0C16.942,0 17.504,0.805 17.504,2.241C17.504,6.092 17.469,10.152 17.469,13.968C17.504,15.858 17.538,17.715 17.538,22.054C17.538,23.209 16.489,23.909 15.229,23.909C14.144,23.909 13.652,23.314 12.847,22.194C10.258,18.414 5.287,11.342 1.716,6.265C1.716,10.046 1.821,18.169 1.856,21.774C1.856,23.28 1.19,23.944 0,23.944" style="fill:white;fill-rule:nonzero;"/>
            </g>
            <g transform="matrix(4.16667,0,0,4.16667,1892.36,777.089)">
                <path d="M0,-17.152C-3.957,-17.152 -7.351,-13.477 -7.351,-8.366C-7.351,-3.324 -3.851,-0.034 0.419,-0.034C4.654,-0.034 7.981,-4.165 7.947,-8.785C7.911,-13.862 4.131,-17.152 0,-17.152M11.832,-8.857C11.832,-1.926 6.929,3.642 0.208,3.642C-5.566,3.642 -11.239,-0.805 -11.239,-8.016C-11.239,-15.892 -5.393,-20.794 0.314,-20.723C6.476,-20.723 11.832,-15.857 11.832,-8.857" style="fill:white;fill-rule:nonzero;"/>
            </g>
            <g transform="matrix(4.16667,0,0,4.16667,2000.29,697.893)">
                <path d="M0,20.899C-0.21,22.053 -0.911,22.473 -1.961,22.473C-3.187,22.473 -3.993,21.598 -3.816,20.442C-3.013,15.471 -1.402,3.185 -0.946,-0.141C-0.667,-1.154 0.631,-1.542 1.608,-1.507C2.766,-1.507 3.324,-0.701 3.709,0.419C5.39,5.111 7.386,10.885 8.751,14.876C8.962,15.471 9.17,16.033 9.241,16.381L9.555,15.543C11.202,11.586 12.497,8.015 15.295,0.558C15.611,-0.141 16.031,-1.226 17.117,-1.542C17.433,-1.576 17.818,-1.61 18.132,-1.576C18.833,-1.542 19.462,-1.331 19.742,-0.807C20.268,1.086 21.353,11.552 22.472,20.514C22.579,21.843 21.668,22.509 20.548,22.509C19.462,22.509 18.762,21.948 18.622,20.899C18.062,15.894 17.573,10.222 17.083,5.179L11.411,20.024C11.061,20.899 10.362,21.703 9.064,21.669C7.805,21.634 7.491,20.828 7.07,19.884C5.458,15.438 2.905,7.91 1.89,4.97C1.26,9.802 0.243,19.288 0,20.899" style="fill:white;fill-rule:nonzero;"/>
            </g>
            <g transform="matrix(4.16667,0,0,4.16667,2153.58,791.238)">
                <path d="M0,-23.874C0.384,-23.874 1.015,-23.874 1.54,-23.839C5.915,-23.839 8.471,-23.909 10.184,-23.909C11.515,-23.909 12.077,-23.243 12.077,-22.334C12.111,-21.634 11.9,-20.793 10.991,-20.584C9.452,-20.513 5.775,-20.548 2.904,-20.548L1.365,-20.548L1.365,-17.187L1.329,-13.897L1.329,-13.441L2.729,-13.441C3.78,-13.441 7.069,-13.513 8.4,-13.546C9.731,-13.546 10.572,-13.335 10.535,-11.865C10.535,-10.921 10.115,-10.221 8.716,-10.221C7.175,-10.221 2.66,-10.186 1.26,-10.186C1.223,-9.486 1.223,-8.682 1.223,-7.945C1.223,-6.509 1.189,-4.936 1.189,-3.499C2.871,-3.465 5.6,-3.499 9.169,-3.536C9.871,-3.57 10.327,-3.604 10.886,-3.604C11.971,-3.604 12.425,-2.94 12.425,-1.889C12.425,-0.946 12.077,-0.071 10.466,-0.033C8.121,0.035 5.251,-0.033 1.049,-0.033C-1.822,-0.033 -2.557,-0.315 -2.662,-2.24L-2.662,-3.536C-2.662,-3.709 -2.522,-8.017 -2.522,-13.581C-2.522,-16.417 -2.486,-19.218 -2.486,-22.089C-2.417,-23.417 -1.437,-23.874 0,-23.874" style="fill:white;fill-rule:nonzero;"/>
            </g>
            <g transform="matrix(4.16667,0,0,4.16667,2259.32,691.618)">
                <path d="M0,23.944C-1.191,23.944 -1.996,23.454 -2.032,22.194C-2.032,21.598 -2.032,20.059 -1.996,13.443C-1.961,10.222 -1.996,8.857 -1.996,5.602C-1.996,4.622 -2.032,3.151 -1.996,1.751C-1.996,0.631 -0.806,0 0.351,0C1.505,0 2.135,0.771 2.833,1.751L10.991,13.267L13.793,17.257C13.756,15.439 13.722,12.636 13.722,10.152L13.651,2.449C13.617,0.91 14.036,0 15.646,0C16.942,0 17.502,0.805 17.502,2.241C17.502,6.092 17.467,10.152 17.467,13.968C17.502,15.858 17.538,17.715 17.538,22.054C17.538,23.209 16.487,23.909 15.226,23.909C14.141,23.909 13.651,23.314 12.846,22.194C10.256,18.414 5.285,11.342 1.713,6.265C1.713,10.046 1.818,18.169 1.856,21.774C1.856,23.28 1.189,23.944 0,23.944" style="fill:white;fill-rule:nonzero;"/>
            </g>
            <g transform="matrix(4.16667,0,0,4.16667,2404.59,730.111)">
                <path d="M0,5.465C1.68,5.465 4.375,5.465 7.246,5.394C6.579,3.539 4.41,-2.516 3.709,-4.548C2.833,-1.957 1.224,2.209 0,5.465M-6.302,10.889C-4.658,7.144 -3.152,3.575 -2.836,2.84C-2.207,1.229 -0.947,-1.781 1.468,-7.909C1.818,-8.785 2.728,-9.275 3.64,-9.275C5.004,-9.275 5.635,-8.785 5.985,-7.838C7.069,-5.281 9.031,-0.067 10.606,3.855C10.746,4.168 10.957,4.59 11.096,4.941C12.391,8.195 13.16,10.051 13.966,11.87C14.14,12.254 14.28,12.642 14.28,13.131C14.28,13.865 13.371,14.74 12.146,14.74C11.096,14.74 10.641,14.357 10.221,13.374C9.135,10.61 8.471,8.894 8.4,8.58C7.175,8.546 4.865,8.546 2.344,8.546L-1.085,8.546C-1.402,9.281 -2.24,11.624 -2.836,13.095C-3.221,14.042 -3.605,14.706 -4.658,14.706C-5.706,14.706 -6.898,14.216 -6.898,12.884C-6.898,12.254 -6.687,11.695 -6.302,10.889" style="fill:white;fill-rule:nonzero;"/>
            </g>
            <g transform="matrix(4.16667,0,0,4.16667,2517.19,791.384)">
                <path d="M0,-24.014C1.018,-24.014 1.787,-23.592 1.821,-22.227C1.821,-19.917 1.75,-17.398 1.717,-14.841C1.717,-12.673 1.682,-10.432 1.682,-8.297C1.682,-4.479 1.647,-3.919 1.647,-3.571C2.625,-3.571 4.515,-3.571 5.356,-3.605L10.361,-3.779C11.623,-3.779 12.077,-3.081 12.077,-2.135C12.077,-0.981 11.551,-0.139 10.258,-0.139L6.268,-0.173C4.481,-0.173 2.767,-0.173 1.329,-0.106C-1.294,0 -2.064,-0.419 -2.24,-2.346L-2.24,-3.674C-2.24,-6.371 -2.099,-9.347 -2.064,-12.287C-2.064,-15.472 -2.099,-19.812 -2.099,-22.227C-2.064,-23.419 -1.119,-24.014 0,-24.014" style="fill:white;fill-rule:nonzero;"/>
            </g>
            <g transform="matrix(4.16667,0,0,4.16667,2734.07,779.423)">
                <path d="M0,-18.307C0,-17.538 -0.698,-16.523 -1.679,-16.523C-2.205,-16.523 -2.904,-16.803 -3.359,-16.978C-4.34,-17.433 -5.637,-17.817 -7.279,-17.817C-9.659,-17.817 -11.655,-16.312 -11.655,-14.282C-11.655,-12.148 -9.38,-11.692 -6.894,-11.13C-2.659,-10.222 0.736,-8.787 0.736,-4.375C0.736,0.14 -2.835,2.976 -7.769,3.01C-10.499,3.01 -12.985,2.312 -14.423,1.61C-15.402,1.121 -15.856,0.525 -15.856,-0.314C-15.856,-1.33 -15.119,-2.275 -14.14,-2.275C-13.546,-2.275 -13.057,-2.066 -12.565,-1.89C-11.376,-1.294 -9.8,-0.629 -7.807,-0.629C-5.179,-0.629 -3.184,-1.995 -3.184,-4.236C-3.184,-6.476 -5.46,-7.28 -8.05,-7.807C-12.005,-8.611 -15.577,-10.01 -15.577,-14.037C-15.577,-18.237 -11.586,-21.317 -7.175,-21.317C-4.864,-21.317 -2.764,-20.828 -1.154,-20.057C-0.418,-19.708 0,-19.148 0,-18.307" style="fill:white;fill-rule:nonzero;"/>
            </g>
            <g transform="matrix(4.16667,0,0,4.16667,2784.1,783.361)">
                <path d="M0,-19.988C0,-21.282 0.663,-21.912 1.854,-21.912C3.359,-21.912 3.884,-21.319 3.884,-19.918C3.813,-15.613 3.851,-10.886 3.851,-8.016C3.851,-3.64 5.949,-1.609 9.485,-1.609C12.812,-1.609 14.91,-4.376 14.947,-8.05C15.053,-11.517 14.91,-16.522 14.91,-20.127C14.91,-21.422 15.718,-21.984 16.905,-21.984C18.235,-21.984 18.832,-21.353 18.832,-19.743L18.901,-8.857C18.901,-2.204 15.367,1.996 9.239,1.996C3.605,1.996 -0.038,-1.609 -0.038,-7.98C-0.038,-12.322 0,-17.012 0,-19.988" style="fill:white;fill-rule:nonzero;"/>
            </g>
            <g transform="matrix(4.16667,0,0,4.16667,2975.61,779.423)">
                <path d="M0,-18.307C0,-17.538 -0.699,-16.523 -1.679,-16.523C-2.205,-16.523 -2.904,-16.803 -3.359,-16.978C-4.34,-17.433 -5.637,-17.817 -7.279,-17.817C-9.659,-17.817 -11.655,-16.312 -11.655,-14.282C-11.655,-12.148 -9.38,-11.692 -6.894,-11.13C-2.659,-10.222 0.736,-8.787 0.736,-4.375C0.736,0.14 -2.835,2.976 -7.771,3.01C-10.501,3.01 -12.987,2.312 -14.423,1.61C-15.403,1.121 -15.858,0.525 -15.858,-0.314C-15.858,-1.33 -15.122,-2.275 -14.14,-2.275C-13.548,-2.275 -13.057,-2.066 -12.565,-1.89C-11.376,-1.294 -9.802,-0.629 -7.807,-0.629C-5.179,-0.629 -3.184,-1.995 -3.184,-4.236C-3.184,-6.476 -5.46,-7.28 -8.05,-7.807C-12.006,-8.611 -15.577,-10.01 -15.577,-14.037C-15.577,-18.237 -11.586,-21.317 -7.175,-21.317C-4.864,-21.317 -2.766,-20.828 -1.154,-20.057C-0.418,-19.708 0,-19.148 0,-18.307" style="fill:white;fill-rule:nonzero;"/>
            </g>
            <g transform="matrix(4.16667,0,0,4.16667,3105.43,698.319)">
                <path d="M0,20.657C0,21.88 -0.736,22.37 -2.033,22.37C-3.188,22.37 -3.993,21.811 -3.993,20.657L-3.993,17.715L-4.029,12.499C-7.599,12.499 -11.38,12.57 -15.159,12.57L-15.09,20.76C-15.09,21.916 -16.034,22.37 -17.155,22.37C-18.24,22.37 -19.081,21.916 -19.081,20.725C-19.081,16.561 -18.94,12.359 -19.01,8.195L-19.148,0.177C-19.148,-1.049 -18.414,-1.608 -17.084,-1.608C-16.034,-1.608 -15.195,-1.155 -15.195,-0.102C-15.159,2.068 -15.195,3.433 -15.159,8.999C-14.669,8.999 -13.831,9.032 -11.798,9.032C-9.942,9.032 -7.668,8.999 -5.779,8.999L-3.993,8.964C-3.993,6.022 -4.029,2.312 -4.029,0.212C-3.993,-1.188 -3.222,-1.713 -2.033,-1.713C-0.808,-1.713 -0.105,-1.083 -0.105,0.177C-0.105,4.062 -0.105,5.918 -0.143,10.504L0,20.657Z" style="fill:white;fill-rule:nonzero;"/>
            </g>
            <g transform="matrix(4.16667,0,0,4.16667,3158.66,783.658)">
                <path d="M0,-20.339C0,-21.669 0.944,-22.194 2.031,-22.194C3.116,-22.194 3.922,-21.598 3.922,-20.515L3.922,-12.007C3.922,-10.433 3.887,-7.771 3.887,-6.477L3.922,-0.07C3.956,1.33 3.081,1.855 1.96,1.855C0.84,1.855 -0.035,1.295 -0.035,0.033C-0.035,-0.842 0,-1.996 0,-3.082L0.069,-12.673C0.069,-14.704 0.036,-17.294 0,-20.339" style="fill:white;fill-rule:nonzero;"/>
            </g>
            <g transform="matrix(4.16667,0,0,4.16667,3309.03,734.053)">
                <path d="M0,3.433L0.036,10.364L4.621,10.364C7.177,10.364 9.313,9.35 9.313,6.828C9.313,4.168 7.213,3.365 4.587,3.365L0,3.433ZM4.025,-6.86C3.116,-6.86 0.842,-6.823 -0.033,-6.789C-0.033,-6.37 -0.033,-5.703 0,0.317C0.804,0.317 2.976,0.283 4.237,0.283C6.65,0.248 8.157,-1.259 8.157,-3.639C8.121,-5.809 6.23,-6.823 4.025,-6.86M11.867,-3.745C11.867,-1.259 10.501,0.562 8.717,1.369C11.271,1.962 13.164,3.784 13.164,6.62C13.164,10.821 10.677,13.096 6.896,13.48C5.357,13.654 3.467,13.654 0.875,13.654L-1.854,13.654C-3.149,13.654 -3.779,12.745 -3.851,11.38L-3.817,5.114L-3.817,-1.992C-3.817,-4.059 -3.922,-5.948 -3.922,-8.014C-3.922,-9.1 -3.219,-9.869 -2.064,-10.01C-0.455,-10.221 2.415,-10.184 4.097,-10.184C8.472,-10.184 11.833,-7.735 11.867,-3.745" style="fill:white;fill-rule:nonzero;"/>
            </g>
            <g transform="matrix(4.16667,0,0,4.16667,3430.67,730.111)">
                <path d="M0,5.465C1.681,5.465 4.375,5.465 7.248,5.394C6.581,3.539 4.411,-2.516 3.71,-4.548C2.835,-1.957 1.226,2.209 0,5.465M-6.3,10.889C-4.654,7.144 -3.15,3.575 -2.833,2.84C-2.203,1.229 -0.944,-1.781 1.471,-7.909C1.821,-8.785 2.73,-9.275 3.643,-9.275C5.007,-9.275 5.637,-8.785 5.984,-7.838C7.072,-5.281 9.032,-0.067 10.607,3.855C10.748,4.168 10.956,4.59 11.097,4.941C12.394,8.195 13.162,10.051 13.97,11.87C14.144,12.254 14.282,12.642 14.282,13.131C14.282,13.865 13.373,14.74 12.148,14.74C11.097,14.74 10.644,14.357 10.222,13.374C9.139,10.61 8.472,8.894 8.402,8.58C7.177,8.546 4.864,8.546 2.344,8.546L-1.083,8.546C-1.399,9.281 -2.241,11.624 -2.833,13.095C-3.221,14.042 -3.605,14.706 -4.654,14.706C-5.706,14.706 -6.896,14.216 -6.896,12.884C-6.896,12.254 -6.686,11.695 -6.3,10.889" style="fill:white;fill-rule:nonzero;"/>
            </g>
            <g transform="matrix(4.16667,0,0,4.16667,3550.27,777.379)">
                <path d="M0,-17.187L0.033,-8.785L3.538,-8.785C6.408,-8.785 8.717,-9.942 8.751,-13.091C8.788,-15.787 6.934,-17.258 3.781,-17.258C2.837,-17.258 0.909,-17.222 0,-17.187M-1.049,-20.513C-0.174,-20.548 0.771,-20.583 1.996,-20.583C2.766,-20.583 3.641,-20.583 4.621,-20.548C9.313,-20.374 12.602,-17.711 12.602,-13.125C12.602,-9.905 10.711,-7.385 7.98,-6.475C9.626,-4.164 11.309,-1.924 12.952,0.28C13.269,0.702 13.477,1.086 13.477,1.577C13.477,2.558 12.532,3.36 11.447,3.36C10.644,3.396 10.26,2.977 9.769,2.38C8.088,-0.104 6.337,-2.764 4.375,-5.494L0.033,-5.494C0.033,-3.604 0.071,-0.418 0.071,1.261C0.071,2.347 -0.245,3.255 -1.576,3.327C-3.255,3.36 -3.815,2.802 -3.779,1.226C-3.675,-5.494 -3.746,-7.98 -3.746,-14.701C-3.746,-15.822 -3.815,-17.117 -3.815,-18.236C-3.815,-19.777 -2.692,-20.442 -1.049,-20.513" style="fill:white;fill-rule:nonzero;"/>
            </g>
            <g transform="matrix(4.16667,0,0,4.16667,1275.77,522.936)">
                <path d="M0,-47.444C0,-45.446 -1.812,-42.815 -4.353,-42.815C-5.715,-42.815 -7.53,-43.541 -8.709,-43.995C-11.25,-45.174 -14.604,-46.173 -18.868,-46.173C-25.035,-46.173 -30.206,-42.271 -30.206,-37.009C-30.206,-31.478 -24.312,-30.298 -17.871,-28.847C-6.893,-26.487 1.905,-22.768 1.905,-11.34C1.905,0.365 -7.349,7.711 -20.138,7.802C-27.214,7.802 -33.654,5.988 -37.375,4.175C-39.915,2.905 -41.094,1.361 -41.094,-0.815C-41.094,-3.445 -39.187,-5.895 -36.646,-5.895C-35.105,-5.895 -33.835,-5.351 -32.565,-4.899C-29.482,-3.355 -25.401,-1.633 -20.23,-1.633C-13.424,-1.633 -8.253,-5.171 -8.253,-10.976C-8.253,-16.782 -14.151,-18.867 -20.863,-20.227C-31.114,-22.316 -40.366,-25.943 -40.366,-36.375C-40.366,-47.26 -30.025,-55.246 -18.594,-55.246C-12.61,-55.246 -7.166,-53.975 -2.992,-51.98C-1.089,-51.071 0,-49.62 0,-47.444" style="fill:white;fill-rule:nonzero;"/>
            </g>
            <g transform="matrix(4.16667,0,0,4.16667,1352.53,533.147)">
                <path d="M0,-51.797C0,-55.156 1.724,-56.787 4.809,-56.787C8.71,-56.787 10.07,-55.246 10.07,-51.616C9.89,-40.459 9.98,-28.213 9.98,-20.774C9.98,-9.436 15.422,-4.174 24.583,-4.174C33.203,-4.174 38.645,-11.34 38.735,-20.866C39.008,-29.845 38.645,-42.818 38.645,-52.161C38.645,-55.518 40.733,-56.968 43.815,-56.968C47.264,-56.968 48.805,-55.337 48.805,-51.162L48.986,-22.952C48.986,-5.716 39.824,5.171 23.951,5.171C9.345,5.171 -0.09,-4.174 -0.09,-20.684C-0.09,-31.933 0,-44.089 0,-51.797" style="fill:white;fill-rule:nonzero;"/>
            </g>
            <g transform="matrix(4.16667,0,0,4.16667,1795.94,522.936)">
                <path d="M0,-47.444C0,-45.446 -1.812,-42.815 -4.353,-42.815C-5.715,-42.815 -7.53,-43.541 -8.709,-43.995C-11.25,-45.174 -14.604,-46.173 -18.868,-46.173C-25.035,-46.173 -30.206,-42.271 -30.206,-37.009C-30.206,-31.478 -24.312,-30.298 -17.872,-28.847C-6.893,-26.487 1.905,-22.768 1.905,-11.34C1.905,0.365 -7.35,7.711 -20.138,7.802C-27.214,7.802 -33.655,5.988 -37.375,4.175C-39.915,2.905 -41.094,1.361 -41.094,-0.815C-41.094,-3.445 -39.187,-5.895 -36.646,-5.895C-35.105,-5.895 -33.835,-5.351 -32.565,-4.899C-29.483,-3.355 -25.401,-1.633 -20.23,-1.633C-13.424,-1.633 -8.253,-5.171 -8.253,-10.976C-8.253,-16.782 -14.151,-18.867 -20.864,-20.227C-31.115,-22.316 -40.367,-25.943 -40.367,-36.375C-40.367,-47.26 -30.025,-55.246 -18.594,-55.246C-12.61,-55.246 -7.166,-53.975 -2.992,-51.98C-1.089,-51.071 0,-49.62 0,-47.444" style="fill:white;fill-rule:nonzero;"/>
            </g>
            <g transform="matrix(4.16667,0,0,4.16667,2079.46,312.784)">
                <path d="M0,53.522C0,56.697 -1.905,57.967 -5.261,57.967C-8.256,57.967 -10.342,56.514 -10.342,53.522L-10.342,45.902L-10.432,32.385C-19.687,32.385 -29.481,32.566 -39.28,32.566L-39.099,53.793C-39.099,56.788 -41.546,57.967 -44.45,57.967C-47.262,57.967 -49.44,56.788 -49.44,53.703C-49.44,42.908 -49.077,32.021 -49.257,21.228L-49.621,0.455C-49.621,-2.72 -47.714,-4.173 -44.27,-4.173C-41.546,-4.173 -39.37,-2.994 -39.37,-0.273C-39.28,5.352 -39.37,8.891 -39.28,23.314C-38.01,23.314 -35.832,23.404 -30.57,23.404C-25.761,23.404 -19.867,23.314 -14.968,23.314L-10.342,23.223C-10.342,15.603 -10.432,5.988 -10.432,0.545C-10.342,-3.082 -8.346,-4.445 -5.261,-4.445C-2.086,-4.445 -0.271,-2.813 -0.271,0.455C-0.271,10.523 -0.271,15.332 -0.364,27.214L0,53.522Z" style="fill:white;fill-rule:nonzero;"/>
            </g>
            <g transform="matrix(4.16667,0,0,4.16667,2164.55,533.908)">
                <path d="M0,-52.708C0,-56.153 2.45,-57.515 5.261,-57.515C8.073,-57.515 10.161,-55.974 10.161,-53.159L10.161,-31.116C10.161,-27.035 10.07,-20.14 10.07,-16.784L10.161,-0.183C10.251,3.444 7.982,4.807 5.081,4.807C2.177,4.807 -0.09,3.355 -0.09,0.089C-0.09,-2.179 0,-5.173 0,-7.984L0.181,-32.841C0.181,-38.102 0.09,-44.813 0,-52.708" style="fill:white;fill-rule:nonzero;"/>
            </g>
            <g transform="matrix(4.16667,0,0,4.16667,2996.13,522.936)">
                <path d="M0,-47.444C0,-45.446 -1.814,-42.815 -4.355,-42.815C-5.717,-42.815 -7.531,-43.541 -8.711,-43.995C-11.25,-45.174 -14.605,-46.173 -18.871,-46.173C-25.039,-46.173 -30.209,-42.271 -30.209,-37.009C-30.209,-31.478 -24.312,-30.298 -17.871,-28.847C-6.896,-26.487 1.904,-22.768 1.904,-11.34C1.904,0.365 -7.35,7.711 -20.141,7.802C-27.217,7.802 -33.658,5.988 -37.375,4.175C-39.914,2.905 -41.096,1.361 -41.096,-0.815C-41.096,-3.445 -39.189,-5.895 -36.648,-5.895C-35.107,-5.895 -33.838,-5.351 -32.568,-4.899C-29.484,-3.355 -25.402,-1.633 -20.23,-1.633C-13.428,-1.633 -8.256,-5.171 -8.256,-10.976C-8.256,-16.782 -14.152,-18.867 -20.867,-20.227C-31.117,-22.316 -40.369,-25.943 -40.369,-36.375C-40.369,-47.26 -30.027,-55.246 -18.598,-55.246C-12.611,-55.246 -7.168,-53.975 -2.994,-51.98C-1.09,-51.071 0,-49.62 0,-47.444" style="fill:white;fill-rule:nonzero;"/>
            </g>
            <g transform="matrix(4.16667,0,0,4.16667,3182.11,516.882)">
                <path d="M0,-44.447C-10.248,-44.447 -19.049,-34.922 -19.049,-21.678C-19.049,-8.616 -9.977,-0.088 1.09,-0.088C12.066,-0.088 20.686,-10.793 20.592,-22.768C20.502,-35.921 10.705,-44.447 0,-44.447M30.664,-22.949C30.664,-4.987 17.963,9.436 0.545,9.436C-14.422,9.436 -29.119,-2.083 -29.119,-20.77C-29.119,-41.182 -13.969,-53.883 0.818,-53.7C16.783,-53.7 30.664,-41.093 30.664,-22.949" style="fill:white;fill-rule:nonzero;"/>
            </g>
            <g transform="matrix(4.16667,0,0,4.16667,3399.12,295.394)">
                <path d="M0,62.05C-3.084,62.05 -5.17,60.78 -5.26,57.515C-5.26,55.971 -5.26,51.981 -5.17,34.834C-5.08,26.488 -5.17,22.952 -5.17,14.516C-5.17,11.975 -5.26,8.165 -5.17,4.535C-5.17,1.634 -2.086,0 0.906,0C3.9,0 5.535,1.995 7.348,4.535L28.484,34.383L35.74,44.724C35.65,40.005 35.561,32.748 35.561,26.308L35.379,6.351C35.289,2.36 36.375,0 40.551,0C43.906,0 45.355,2.088 45.355,5.806C45.355,15.785 45.266,26.308 45.266,36.196C45.355,41.094 45.447,45.904 45.447,57.151C45.447,60.146 42.727,61.958 39.461,61.958C36.65,61.958 35.379,60.416 33.293,57.515C26.58,47.716 13.697,29.393 4.445,16.239C4.445,26.036 4.717,47.081 4.807,56.426C4.807,60.326 3.086,62.05 0,62.05" style="fill:white;fill-rule:nonzero;"/>
            </g>
            <g transform="matrix(4.16667,0,0,4.16667,3859.55,535.778)">
                <path d="M0,-53.608C1.994,-52.428 3.172,-51.252 3.172,-49.346C3.172,-47.077 1.541,-44.537 -1,-44.537C-2.723,-44.537 -4.535,-45.536 -5.807,-46.261C-8.529,-47.893 -12.246,-49.437 -17.781,-49.437C-28.033,-49.437 -38.283,-39.73 -38.283,-27.393C-38.283,-13.058 -30.027,-4.532 -17.871,-4.532C-7.531,-4.532 -1.543,-12.879 -1.363,-21.224L-11.611,-21.224C-14.244,-21.315 -15.605,-23.219 -15.605,-25.579C-15.605,-27.938 -14.336,-29.751 -11.34,-29.84L2.811,-29.84C7.527,-29.84 8.617,-27.212 8.617,-22.948C8.525,-6.982 -1.998,4.72 -18.871,4.72C-35.652,4.72 -48.352,-7.981 -48.352,-26.758C-48.352,-44.811 -33.748,-58.328 -17.418,-58.328C-9.98,-58.328 -4.084,-56.149 0,-53.608" style="fill:white;fill-rule:nonzero;"/>
            </g>
            <g transform="matrix(4.16667,0,0,4.16667,2702.82,378.678)">
                <path d="M0,23.39C-8.238,28.143 -12.398,30.603 -16.424,32.981C-20.47,35.372 -24.653,37.842 -32.932,42.623C-41.098,47.337 -45.137,49.932 -49.044,52.439C-53.033,55 -57.16,57.65 -65.505,62.468C-67.747,63.761 -70.121,64.416 -72.565,64.416C-75.074,64.416 -77.539,63.728 -79.894,62.37C-86.309,58.663 -86.309,52.111 -86.309,49.956C-86.309,40.483 -86.443,35.666 -86.573,31.01C-86.704,26.293 -86.837,21.417 -86.837,11.825C-86.837,2.541 -87.369,-1.97 -87.928,-6.745C-88.496,-11.554 -89.079,-16.526 -89.079,-26.309C-89.079,-31.992 -84.469,-36.679 -80.154,-39.17C-78.021,-40.401 -75.696,-41.026 -73.24,-41.026C-70.608,-41.026 -67.924,-40.278 -65.477,-38.866C-57.425,-34.217 -53.263,-32.391 -48.857,-30.457C-44.432,-28.518 -39.858,-26.51 -31.4,-21.628C-23.112,-16.844 -18.937,-14.346 -14.9,-11.933C-10.893,-9.537 -6.746,-7.059 1.48,-2.309C6.566,0.628 8.883,7.076 8.883,11.825C8.883,18.26 3.32,21.471 0,23.39" style="fill:rgb(211,55,39);fill-rule:nonzero;"/>
            </g>
            <g transform="matrix(4.16667,0,0,4.16667,2691.23,454.995)">
                <path d="M0,-13.243C-8.279,-18.026 -12.453,-20.52 -16.49,-22.935C-20.501,-25.331 -24.647,-27.81 -32.876,-32.562C-40.931,-37.211 -45.091,-39.037 -49.496,-40.969C-53.92,-42.91 -58.497,-44.917 -66.958,-49.8C-68.108,-50.467 -69.319,-50.82 -70.457,-50.82C-71.396,-50.82 -72.289,-50.579 -73.11,-50.106C-75.769,-48.57 -77.774,-46.215 -77.774,-44.625C-77.774,-35.341 -77.243,-30.831 -76.682,-26.056C-76.117,-21.248 -75.531,-16.275 -75.531,-6.492C-75.531,2.983 -75.398,7.799 -75.27,12.456C-75.139,17.173 -75.003,22.049 -75.003,31.64C-75.003,35.137 -73.985,36.016 -72.849,36.672C-71.808,37.272 -70.775,37.577 -69.782,37.577C-68.854,37.577 -67.912,37.306 -66.983,36.77C-58.813,32.053 -54.773,29.459 -50.865,26.952C-46.876,24.389 -42.751,21.74 -34.409,16.925C-26.169,12.167 -22.004,9.706 -17.976,7.327C-13.934,4.938 -9.75,2.468 -1.48,-2.306C1.449,-3.998 3.143,-5.225 3.143,-6.492C3.143,-9.122 1.676,-12.278 0,-13.243" style="fill:white;fill-rule:nonzero;"/>
            </g>
            <g transform="matrix(4.16667,0,0,4.16667,2685.06,409.434)">
                <path d="M0,8.628C-8.27,13.402 -12.453,15.873 -16.495,18.261C-20.523,20.641 -24.688,23.101 -32.929,27.859C-41.271,32.674 -45.396,35.323 -49.384,37.886C-53.292,40.394 -57.332,42.988 -65.503,47.705C-66.431,48.24 -67.374,48.512 -68.302,48.512C-69.294,48.512 -70.327,48.206 -71.368,47.607C-72.505,46.95 -73.523,46.071 -73.523,42.575C-73.523,32.983 -73.658,28.107 -73.789,23.391C-73.918,18.733 -74.051,13.918 -74.051,4.443C-74.051,-5.34 -74.637,-10.313 -75.202,-15.121C-75.763,-19.896 -76.293,-24.407 -76.293,-33.69C-76.293,-35.281 -74.289,-37.636 -71.63,-39.171C-70.808,-39.644 -69.916,-39.885 -68.977,-39.885C-67.838,-39.885 -66.628,-39.532 -65.477,-38.865C-57.017,-33.982 -52.44,-31.975 -48.015,-30.035C-43.61,-28.102 -39.45,-26.277 -31.396,-21.628C-23.167,-16.876 -19.021,-14.396 -15.01,-12C-10.973,-9.586 -6.799,-7.091 1.48,-2.309C3.156,-1.343 4.623,1.812 4.623,4.443C4.623,5.709 2.93,6.937 0,8.628M5.744,-9.69C-2.482,-14.44 -6.629,-16.918 -10.637,-19.315C-14.674,-21.728 -18.849,-24.226 -27.137,-29.01C-35.595,-33.892 -40.168,-35.9 -44.594,-37.839C-48.999,-39.772 -53.162,-41.599 -61.213,-46.247C-63.661,-47.66 -66.345,-48.407 -68.977,-48.407C-71.432,-48.407 -73.758,-47.783 -75.891,-46.552C-80.206,-44.061 -84.815,-39.374 -84.815,-33.69C-84.815,-23.908 -84.232,-18.935 -83.665,-14.126C-83.105,-9.352 -82.574,-4.841 -82.574,4.443C-82.574,14.036 -82.44,18.911 -82.31,23.628C-82.18,28.285 -82.045,33.101 -82.045,42.575C-82.045,44.729 -82.045,51.282 -75.63,54.988C-73.275,56.346 -70.811,57.035 -68.302,57.035C-65.857,57.035 -63.483,56.379 -61.242,55.086C-52.896,50.269 -48.77,47.618 -44.78,45.057C-40.873,42.55 -36.834,39.956 -28.668,35.241C-20.39,30.46 -16.206,27.99 -12.16,25.599C-8.135,23.222 -3.975,20.761 4.264,16.008C7.584,14.089 13.146,10.878 13.146,4.443C13.146,-0.306 10.83,-6.753 5.744,-9.69" style="fill:rgb(25,25,25);fill-rule:nonzero;"/>
            </g>
            <g transform="matrix(4.16667,0,0,4.16667,2580.03,442.811)">
                <path d="M0,-9.591L-1.77,-10.649C-4.65,-12.371 -7.371,-13.998 -13.024,-17.261C-18.331,-20.325 -21.075,-21.529 -24.021,-22.821C-25.249,-23.361 -26.522,-23.918 -27.982,-24.612C-29.694,-25.426 -31.717,-25.247 -33.262,-24.144C-34.806,-23.041 -35.63,-21.189 -35.417,-19.303L-35.271,-18.049C-34.88,-14.733 -34.438,-10.976 -34.438,-3.9C-34.438,2.578 -34.352,5.72 -34.259,9.049L-34.212,10.746C-34.164,12.63 -33.103,14.343 -31.437,15.226C-30.67,15.632 -29.829,15.835 -28.99,15.835C-28.007,15.835 -27.029,15.557 -26.173,15.01L-25.673,14.689C-22.863,12.885 -19.958,11.021 -14.084,7.629C-8.436,4.368 -5.577,2.679 -2.771,1.022L-0.024,-0.599C1.566,-1.535 2.544,-3.241 2.551,-5.088C2.556,-6.935 1.587,-8.646 0,-9.591" style="fill:rgb(212,52,39);fill-rule:nonzero;"/>
            </g>
        </g>
    </g>
</svg>
