<?xml version="1.0" encoding="UTF-8" standalone="no"?><!DOCTYPE svg PUBLIC "-//W3C//DTD SVG 1.1//EN" "http://www.w3.org/Graphics/SVG/1.1/DTD/svg11.dtd"><svg width="100%" height="100%" viewBox="0 0 177 75" version="1.1" xmlns="http://www.w3.org/2000/svg" xmlns:xlink="http://www.w3.org/1999/xlink" xml:space="preserve" xmlns:serif="http://www.serif.com/" style="fill-rule:evenodd;clip-rule:evenodd;stroke-linejoin:round;stroke-miterlimit:2;"><g><g><path d="M57.016,28.508c-0,15.74 -12.768,28.508 -28.508,28.508c-15.74,-0 -28.508,-12.768 -28.508,-28.508c0,-15.74 12.768,-28.508 28.508,-28.508c15.74,0 28.508,12.768 28.508,28.508" style="fill:#34e0a1;fill-rule:nonzero;"/><path d="M46.095,22.887l3.453,-3.775l-7.629,0c-3.775,-2.569 -8.432,-4.095 -13.411,-4.095c-4.979,-0 -9.556,1.526 -13.331,4.095l-7.628,0l3.453,3.775c-2.088,1.927 -3.453,4.657 -3.453,7.789c-0,5.782 4.657,10.52 10.519,10.52c2.731,-0 5.22,-1.044 7.147,-2.811l3.373,3.694l3.373,-3.694c1.847,1.767 4.336,2.811 7.147,2.811c5.782,-0 10.52,-4.658 10.52,-10.52c-0.161,-3.132 -1.446,-5.862 -3.533,-7.789m-28.107,14.856c-3.935,-0 -7.067,-3.212 -7.067,-7.067c0,-3.935 3.213,-7.067 7.067,-7.067c3.935,0 7.067,3.213 7.067,7.067c0.08,3.855 -3.132,7.067 -7.067,7.067m10.52,-7.308c-0,-4.657 -3.373,-8.673 -7.87,-10.359c2.409,-1.044 5.059,-1.606 7.87,-1.606c2.811,-0 5.461,0.562 7.87,1.606c-4.497,1.686 -7.87,5.702 -7.87,10.359m10.52,7.308c-3.935,-0 -7.067,-3.212 -7.067,-7.067c0,-3.935 3.212,-7.067 7.067,-7.067c3.935,0 7.067,3.213 7.067,7.067c-0,3.855 -3.213,7.067 -7.067,7.067m-0,-10.841c-2.088,-0 -3.694,1.686 -3.694,3.694c-0,2.007 1.686,3.694 3.694,3.694c2.088,-0 3.694,-1.687 3.694,-3.694c-0,-2.008 -1.687,-3.694 -3.694,-3.694m-17.266,3.694c0,2.088 -1.686,3.694 -3.694,3.694c-2.087,-0 -3.694,-1.687 -3.694,-3.694c0,-2.008 1.687,-3.694 3.694,-3.694c2.008,-0 3.694,1.686 3.694,3.694" style="fill-rule:nonzero;"/></g><clipPath id="_clip1"><rect id="yelp-burst-logo.svg" x="119.718" y="3.439" width="57.016" height="71.411"/></clipPath><g clip-path="url(#_clip1)"><g><path d="M138.4,48.526l3.295,-0.768c0.061,-0.02 0.182,-0.04 0.324,-0.081c0.91,-0.242 1.678,-0.829 2.163,-1.638c0.485,-0.808 0.647,-1.759 0.425,-2.689c-0,-0.02 -0,-0.04 -0.02,-0.06c-0.102,-0.445 -0.304,-0.849 -0.567,-1.234c-0.364,-0.465 -0.829,-0.849 -1.334,-1.152c-0.607,-0.344 -1.254,-0.647 -1.901,-0.89l-3.598,-1.314c-2.022,-0.748 -4.044,-1.476 -6.086,-2.204c-1.335,-0.465 -2.447,-0.889 -3.417,-1.193c-0.182,-0.06 -0.384,-0.121 -0.546,-0.161c-1.173,-0.364 -2.002,-0.506 -2.709,-0.526c-0.465,-0.02 -0.93,0.061 -1.375,0.243c-0.445,0.202 -0.849,0.485 -1.193,0.849c-0.162,0.182 -0.323,0.384 -0.465,0.586c-0.141,0.202 -0.263,0.425 -0.364,0.647c-0.121,0.243 -0.222,0.485 -0.323,0.728c-0.668,1.981 -1.011,4.064 -0.991,6.146c0.02,1.881 0.061,4.307 1.092,5.945c0.242,0.424 0.586,0.788 0.99,1.071c0.748,0.506 1.497,0.587 2.265,0.627c1.152,0.081 2.285,-0.202 3.417,-0.465l10.918,-2.467Z" style="fill:#ff1a1a;fill-rule:nonzero;"/><path d="M175.096,31.058c-0.89,-1.881 -2.103,-3.599 -3.579,-5.095c-0.182,-0.182 -0.384,-0.364 -0.606,-0.526c-0.202,-0.142 -0.404,-0.283 -0.627,-0.425c-0.222,-0.121 -0.445,-0.222 -0.667,-0.323c-0.465,-0.182 -0.95,-0.263 -1.436,-0.243c-0.465,0.02 -0.93,0.162 -1.334,0.384c-0.627,0.304 -1.314,0.809 -2.204,1.658c-0.121,0.122 -0.283,0.263 -0.424,0.405c-0.748,0.707 -1.577,1.556 -2.568,2.567c-1.517,1.537 -3.033,3.094 -4.509,4.651l-2.669,2.77c-0.485,0.505 -0.93,1.051 -1.334,1.637c-0.344,0.485 -0.586,1.052 -0.708,1.618c-0.081,0.444 -0.06,0.91 0.041,1.354c-0,0.021 -0,0.041 0.02,0.061c0.202,0.91 0.768,1.719 1.557,2.224c0.788,0.505 1.739,0.708 2.669,0.526c0.141,-0.021 0.262,-0.041 0.323,-0.061l14.214,-3.296c1.112,-0.262 2.264,-0.505 3.255,-1.071c0.667,-0.384 1.314,-0.789 1.759,-1.557c0.242,-0.425 0.384,-0.91 0.424,-1.395c0.223,-1.941 -0.788,-4.145 -1.597,-5.863Z" style="fill:#ff1a1a;fill-rule:nonzero;"/><path d="M149.641,37.042c1.031,-1.294 1.031,-3.214 1.112,-4.812c0.303,-5.277 0.627,-10.533 0.89,-15.81c0.101,-2.002 0.323,-3.963 0.202,-5.985c-0.101,-1.658 -0.101,-3.559 -1.153,-4.933c-1.86,-2.406 -5.802,-2.204 -8.491,-1.84c-0.829,0.121 -1.658,0.263 -2.467,0.465c-0.809,0.202 -1.638,0.404 -2.426,0.667c-2.588,0.849 -6.207,2.406 -6.834,5.378c-0.344,1.678 0.465,3.397 1.112,4.933c0.768,1.86 1.82,3.539 2.79,5.298c2.548,4.63 5.136,9.219 7.724,13.829c0.768,1.375 1.617,3.114 3.113,3.821c0.101,0.041 0.202,0.081 0.304,0.122c0.667,0.262 1.395,0.303 2.102,0.141c0.041,0 0.081,-0.02 0.122,-0.02c0.647,-0.182 1.233,-0.526 1.678,-1.011c0.06,-0.081 0.141,-0.162 0.222,-0.243Z" style="fill:#ff1a1a;fill-rule:nonzero;"/><path d="M148.408,51.155c-0.405,-0.566 -0.971,-0.991 -1.638,-1.213c-0.667,-0.223 -1.375,-0.223 -2.042,-0.021c-0.162,0.061 -0.303,0.122 -0.445,0.182c-0.222,0.122 -0.445,0.243 -0.647,0.405c-0.586,0.445 -1.092,1.011 -1.536,1.577c-0.122,0.141 -0.223,0.343 -0.364,0.465l-2.285,3.154c-1.294,1.759 -2.568,3.538 -3.841,5.317c-0.829,1.153 -1.537,2.143 -2.103,3.013c-0.101,0.162 -0.223,0.344 -0.324,0.485c-0.687,1.051 -1.051,1.82 -1.253,2.487c-0.142,0.445 -0.202,0.93 -0.142,1.395c0.061,0.485 0.223,0.97 0.486,1.395c0.141,0.222 0.283,0.425 0.444,0.607c0.162,0.182 0.344,0.364 0.526,0.546c0.202,0.181 0.404,0.363 0.627,0.505c1.577,1.092 3.316,1.88 5.135,2.507c1.517,0.506 3.094,0.809 4.671,0.89c0.263,0.02 0.546,-0 0.808,-0.021c0.243,-0.02 0.506,-0.06 0.749,-0.101c0.242,-0.06 0.485,-0.121 0.727,-0.202c0.465,-0.182 0.89,-0.445 1.234,-0.788c0.343,-0.344 0.586,-0.748 0.748,-1.193c0.263,-0.667 0.445,-1.496 0.546,-2.73c-0,-0.182 0.04,-0.384 0.06,-0.586c0.081,-1.031 0.142,-2.244 0.203,-3.66c0.121,-2.183 0.202,-4.367 0.262,-6.55l0.142,-3.882c0.04,-0.89 -0,-1.881 -0.243,-2.77c-0.101,-0.425 -0.263,-0.829 -0.505,-1.213Z" style="fill:#ff1a1a;fill-rule:nonzero;"/><path d="M174.227,57.24c-0.486,-0.525 -1.153,-1.051 -2.224,-1.698c-0.162,-0.081 -0.344,-0.202 -0.506,-0.303c-0.889,-0.526 -1.961,-1.092 -3.215,-1.779c-1.92,-1.052 -3.841,-2.083 -5.782,-3.094l-3.437,-1.819c-0.182,-0.061 -0.364,-0.182 -0.526,-0.263c-0.667,-0.324 -1.354,-0.607 -2.082,-0.748c-0.243,-0.041 -0.506,-0.081 -0.748,-0.081c-0.162,-0 -0.324,-0 -0.486,0.02c-0.687,0.101 -1.314,0.425 -1.819,0.91c-0.485,0.485 -0.829,1.112 -0.93,1.799c-0.061,0.445 -0.041,0.87 0.04,1.314c0.162,0.91 0.566,1.82 0.991,2.609l1.84,3.437c1.011,1.941 2.042,3.861 3.113,5.782c0.688,1.254 1.254,2.325 1.78,3.215c0.101,0.162 0.222,0.344 0.303,0.505c0.647,1.072 1.173,1.739 1.698,2.224c0.344,0.324 0.748,0.587 1.193,0.728c0.465,0.162 0.971,0.202 1.456,0.162c0.242,-0.02 0.505,-0.081 0.748,-0.121c0.243,-0.061 0.485,-0.142 0.708,-0.243c0.262,-0.101 0.505,-0.202 0.727,-0.344c1.395,-0.788 2.669,-1.738 3.822,-2.85c1.375,-1.355 2.567,-2.811 3.518,-4.489c0.121,-0.243 0.242,-0.485 0.343,-0.748c0.081,-0.243 0.162,-0.465 0.223,-0.708c0.06,-0.242 0.101,-0.505 0.121,-0.748c0.041,-0.485 -0.02,-0.99 -0.162,-1.455c-0.121,-0.465 -0.384,-0.87 -0.707,-1.214Z" style="fill:#ff1a1a;fill-rule:nonzero;"/></g></g></g></svg>