<?xml version="1.0" encoding="UTF-8" standalone="no"?><!DOCTYPE svg PUBLIC "-//W3C//DTD SVG 1.1//EN" "http://www.w3.org/Graphics/SVG/1.1/DTD/svg11.dtd"><svg width="100%" height="100%" viewBox="0 0 750 213" version="1.1" xmlns="http://www.w3.org/2000/svg" xmlns:xlink="http://www.w3.org/1999/xlink" xml:space="preserve" xmlns:serif="http://www.serif.com/" style="fill-rule:evenodd;clip-rule:evenodd;stroke-linejoin:round;stroke-miterlimit:2;"><g><path d="M167.707,99.698c-0.726,16.344 -12.167,38.681 -34.231,67.101c-22.791,29.692 -42.132,44.492 -57.931,44.492c-9.806,-0 -18.069,-8.989 -24.788,-27.058c-4.54,-16.526 -8.989,-33.142 -13.529,-49.668c-4.994,-18.069 -10.442,-27.058 -16.162,-27.058c-1.272,-0 -5.63,2.633 -13.166,7.899l-7.9,-10.169c8.263,-7.264 16.435,-14.528 24.516,-21.883c11.077,-9.534 19.34,-14.528 24.879,-15.073c13.075,-1.271 21.066,7.628 24.062,26.786c3.269,20.612 5.539,33.415 6.81,38.499c3.723,17.071 7.899,25.606 12.439,25.606c3.542,-0 8.808,-5.539 15.8,-16.617c6.991,-11.077 10.805,-19.521 11.259,-25.333c0.999,-9.534 -2.724,-14.346 -11.259,-14.346c-3.996,0 -8.172,0.908 -12.44,2.724c8.263,-26.967 23.971,-40.133 47.216,-39.407c17.252,0.454 25.333,11.622 24.425,33.505Z" style="fill:#fff;fill-rule:nonzero;"/><path d="M271.219,152.634c-6.992,13.257 -16.708,25.333 -28.965,36.139c-16.798,14.527 -33.687,21.791 -50.485,21.791c-7.809,0 -13.802,-2.542 -17.888,-7.536c-4.176,-4.994 -6.083,-11.531 -5.811,-19.613c0.273,-8.262 2.815,-21.065 7.718,-38.408c4.903,-17.343 7.355,-26.604 7.355,-27.875c-0,-6.538 -2.27,-9.807 -6.81,-9.807c-1.544,0 -5.811,2.633 -12.803,7.9l-8.626,-10.17c7.991,-7.264 16.072,-14.528 24.062,-21.882c10.805,-9.534 18.796,-14.528 24.153,-15.073c8.263,-0.727 14.346,1.725 18.251,7.355c3.904,5.629 5.357,12.984 4.358,21.973c-3.269,15.254 -6.81,34.686 -10.533,58.203c-0.272,10.805 3.632,16.162 11.713,16.162c3.542,-0 9.807,-3.723 18.796,-11.168c7.536,-6.175 13.711,-11.986 18.432,-17.434l7.083,9.443Zm-32.779,-133.929c-0.272,6.265 -3.36,12.258 -9.443,17.978c-6.81,6.538 -14.801,9.716 -24.062,9.716c-14.346,-0 -21.247,-6.266 -20.702,-18.705c0.272,-6.538 4.086,-12.712 11.44,-18.705c7.446,-5.993 15.618,-8.989 24.698,-8.989c5.266,-0 9.625,2.088 13.166,6.174c3.541,4.086 5.175,8.263 4.903,12.531Z" style="fill:#fff;fill-rule:nonzero;"/><path d="M506.39,152.634c-6.992,13.257 -16.707,25.333 -28.965,36.139c-16.798,14.527 -33.687,21.791 -50.485,21.791c-16.344,0 -24.243,-8.989 -23.699,-27.058c0.273,-7.99 1.816,-17.706 4.722,-28.965c2.906,-11.259 4.449,-20.067 4.722,-26.332c0.272,-9.534 -2.634,-14.346 -8.717,-14.346c-6.538,-0 -14.347,7.809 -23.427,23.335c-9.534,16.344 -14.709,32.143 -15.526,47.489c-0.545,10.805 0.545,19.067 3.178,24.879c-17.525,0.544 -29.783,-2.361 -36.774,-8.626c-6.265,-5.539 -9.171,-14.71 -8.626,-27.513c0.272,-7.99 1.453,-16.071 3.723,-24.062c2.179,-7.99 3.45,-15.163 3.722,-21.519c0.545,-9.262 -2.905,-13.892 -10.169,-13.892c-6.265,-0 -13.075,7.173 -20.339,21.428c-7.264,14.347 -11.35,29.238 -12.077,44.855c-0.544,14.074 0.364,23.881 2.724,29.419c-17.252,0.545 -29.51,-3.087 -36.683,-10.896c-5.992,-6.537 -8.716,-16.343 -8.262,-29.691c0.272,-6.538 1.362,-15.618 3.45,-27.24c2.088,-11.622 3.269,-20.702 3.45,-27.24c0.454,-4.54 -0.635,-6.719 -3.359,-6.719c-1.544,0 -5.811,2.542 -12.803,7.627l-9.08,-10.169c1.271,-0.999 9.171,-8.263 23.699,-21.883c10.532,-9.806 17.706,-14.8 21.428,-15.073c6.538,-0.545 11.804,2.179 15.8,8.081c3.995,5.902 5.992,12.712 5.992,20.521c0,2.542 -0.272,4.903 -0.726,7.173c3.723,-5.811 8.172,-10.805 13.166,-15.073c11.531,-10.078 24.516,-15.708 38.771,-16.979c12.349,-0.999 21.066,1.907 26.332,8.626c4.268,5.539 6.265,13.438 5.993,23.699c1.725,-1.453 3.632,-3.178 5.63,-4.904c5.811,-6.81 11.44,-12.167 16.979,-16.162c9.262,-6.81 18.977,-10.533 28.965,-11.259c12.077,-0.999 20.703,1.907 25.969,8.626c4.54,5.539 6.538,13.347 5.993,23.608c-0.273,6.991 -1.907,17.161 -5.085,30.599c-3.178,13.348 -4.722,21.066 -4.722,23.063c-0.272,5.267 0.273,8.899 1.544,10.896c1.271,1.998 4.268,2.997 9.08,2.997c3.541,-0 9.806,-3.723 18.795,-11.169c7.537,-6.174 13.711,-11.985 18.433,-17.433l7.264,9.352Z" style="fill:#fff;fill-rule:nonzero;"/><path d="M647.674,152.271c-7.264,12.076 -21.61,24.062 -42.948,36.138c-26.604,15.255 -53.572,22.973 -80.993,22.973c-20.34,-0 -34.958,-6.81 -43.675,-20.339c-6.265,-9.262 -9.262,-20.34 -9.08,-33.142c0.272,-20.339 9.261,-39.68 27.149,-58.021c19.613,-20.067 42.676,-30.146 69.28,-30.146c24.607,0 37.682,9.988 39.135,30.055c0.999,12.803 -5.993,25.878 -21.066,39.407c-16.071,14.8 -36.32,24.153 -60.654,28.148c4.54,6.265 11.259,9.352 20.339,9.352c18.069,0 37.773,-4.631 59.111,-13.801c15.345,-6.447 27.331,-13.166 36.138,-20.158l7.264,9.534Zm-85.533,-39.407c0.272,-6.719 -2.543,-10.079 -8.263,-10.079c-7.536,0 -15.164,5.176 -22.972,15.527c-7.809,10.351 -11.804,20.339 -11.986,29.782c-0.181,0 -0.181,1.635 0,4.903c12.258,-4.449 22.972,-11.35 31.962,-20.611c7.264,-7.99 10.986,-14.437 11.259,-19.522Z" style="fill:#fff;fill-rule:nonzero;"/><path d="M749.915,127.029c-0.999,23.063 -9.534,43.039 -25.606,59.837c-16.072,16.798 -36.047,25.151 -59.928,25.151c-19.794,0 -34.867,-6.356 -45.218,-19.158c-7.536,-9.534 -11.713,-21.429 -12.44,-35.685c-1.271,-21.519 6.538,-41.404 23.336,-59.383c18.069,-20.066 40.769,-30.054 68.191,-30.054c17.524,-0 30.871,5.902 39.951,17.705c8.536,10.624 12.44,24.516 11.714,41.587Zm-42.586,-1.453c0.273,-6.81 -0.726,-12.984 -2.814,-18.705c-2.179,-5.629 -5.176,-8.535 -9.262,-8.535c-12.803,0 -23.335,6.901 -31.598,20.793c-7.083,11.35 -10.805,23.426 -11.35,36.229c-0.273,6.265 0.908,11.804 3.359,16.617c2.724,5.538 6.629,8.262 11.714,8.262c11.259,0 20.974,-6.628 28.965,-19.976c6.901,-11.077 10.532,-22.609 10.986,-34.685Z" style="fill:#fff;fill-rule:nonzero;"/></g></svg>