<?xml version="1.0" encoding="UTF-8" standalone="no"?><!DOCTYPE svg PUBLIC "-//W3C//DTD SVG 1.1//EN" "http://www.w3.org/Graphics/SVG/1.1/DTD/svg11.dtd"><svg width="100%" height="100%" viewBox="0 0 948 1381" version="1.1" xmlns="http://www.w3.org/2000/svg" xmlns:xlink="http://www.w3.org/1999/xlink" xml:space="preserve" xmlns:serif="http://www.serif.com/" style="fill-rule:evenodd;clip-rule:evenodd;stroke-linejoin:round;stroke-miterlimit:2;"><g><g><path d="M83.001,924.654l-0,-807.99l246.153,0.441l-0,220.027c44.094,-26.938 121.28,-39.086 178.342,-41.322c2.999,0.42 6.048,0.689 9.141,0.797c224.282,7.86 439.325,195.373 430.007,461.243c-0.2,5.714 0.155,11.319 1.017,16.764l-0,113.56l-241.791,-0l-0,-181.185c-0,-23.961 4.452,-287.494 -190.539,-287.494c-194.991,0 -184.766,244.158 -184.766,285.979c0,70.716 -0.685,166.529 -0.84,187.259c17.568,6.029 34.874,13.856 51.668,23.552c30.019,17.332 40.32,55.775 22.988,85.795c-17.332,30.019 -55.775,40.32 -85.794,22.988c-72.008,-41.574 -162.62,-23.834 -201.389,43.316c-17.331,30.02 -55.775,40.321 -85.794,22.989c-30.02,-17.332 -40.32,-55.775 -22.989,-85.794c19.054,-33.002 44.695,-60.196 74.586,-80.925Z" style="fill:#da127d;"/><ellipse cx="826.965" cy="888.56" rx="120.696" ry="114.965" style="fill:#da127d;"/><ellipse cx="205.943" cy="117.105" rx="122.943" ry="117.105" style="fill:#da127d;"/><path d="M780.379,1122.55c30.348,-30.348 79.624,-30.348 109.972,-0c30.347,30.347 30.347,79.624 -0,109.972c-196.711,196.71 -516.12,196.71 -712.831,-0c-30.347,-30.348 -30.347,-79.625 0,-109.972c30.348,-30.348 79.625,-30.348 109.972,-0c136.016,136.016 356.871,136.016 492.887,-0Z" style="fill:#da127d;"/></g></g></svg>