<?xml version="1.0" encoding="UTF-8" standalone="no"?>
<!DOCTYPE svg PUBLIC "-//W3C//DTD SVG 1.1//EN" "http://www.w3.org/Graphics/SVG/1.1/DTD/svg11.dtd">
<svg width="100%" height="100%" viewBox="0 0 268 390" version="1.1" xmlns="http://www.w3.org/2000/svg" xmlns:xlink="http://www.w3.org/1999/xlink" xml:space="preserve" xmlns:serif="http://www.serif.com/" style="fill-rule:evenodd;clip-rule:evenodd;stroke-linejoin:round;stroke-miterlimit:2;">
    <g transform="matrix(1,0,0,1,-627.061,-115.169)">
        <g transform="matrix(2.89958,0,0,2.89958,-123.01,-823.021)">
            <path d="M327.403,409.98L327.364,409.98L327.364,392.351C327.364,390.019 327.797,364.377 308.824,364.377C289.852,364.377 290.847,388.134 290.847,392.203C290.847,399.084 290.78,408.406 290.765,410.424C292.474,411.01 294.158,411.772 295.792,412.715C298.713,414.401 299.715,418.142 298.029,421.063C296.343,423.984 292.602,424.986 289.681,423.3C282.675,419.255 273.858,420.981 270.086,427.514C268.4,430.435 264.659,431.438 261.738,429.751C258.817,428.065 257.815,424.324 259.502,421.403C261.355,418.192 263.85,415.546 266.759,413.529L266.759,334.955C266.759,334.941 266.759,334.926 266.759,334.912C266.783,328.643 272.134,323.561 278.721,323.561C285.323,323.561 290.683,328.666 290.683,334.955L290.709,334.955L290.709,356.364C295,353.742 302.51,352.56 308.062,352.343C308.354,352.384 308.651,352.41 308.952,352.42C330.774,353.185 351.698,371.43 350.791,397.299C350.772,397.855 350.806,398.401 350.89,398.93L350.89,409.98C350.89,409.992 350.89,410.005 350.89,410.017C350.89,416.191 345.628,421.204 339.146,421.204C332.665,421.204 327.403,416.191 327.403,410.017C327.403,410.005 327.403,409.992 327.403,409.98Z" style="fill:rgb(203,0,95);"/>
            <g transform="matrix(0.541363,-0.541363,0.541363,0.541363,2.34134,245.721)">
                <path d="M134.114,479.656C139.568,479.656 143.996,484.084 143.996,489.538C143.996,494.993 139.568,499.421 134.114,499.421C98.759,499.421 70.055,470.717 70.055,435.362C70.055,429.908 74.483,425.479 79.937,425.479C85.392,425.479 89.82,429.908 89.82,435.362C89.82,459.808 109.667,479.656 134.114,479.656Z" style="fill:rgb(203,0,95);"/>
            </g>
        </g>
    </g>
</svg>
