<?xml version="1.0" encoding="UTF-8" standalone="no"?><!DOCTYPE svg PUBLIC "-//W3C//DTD SVG 1.1//EN" "http://www.w3.org/Graphics/SVG/1.1/DTD/svg11.dtd"><svg width="100%" height="100%" viewBox="0 0 1070 332" version="1.1" xmlns="http://www.w3.org/2000/svg" xmlns:xlink="http://www.w3.org/1999/xlink" xml:space="preserve" xmlns:serif="http://www.serif.com/" style="fill-rule:evenodd;clip-rule:evenodd;stroke-linejoin:round;stroke-miterlimit:2;"><g><g><path d="M283.618,208.487c-4.681,-0 -8.278,-1.293 -10.792,-3.878c-2.513,-2.585 -3.77,-6.252 -3.77,-11.001l0,-84.657c0,-4.787 1.257,-8.463 3.77,-11.029c2.514,-2.567 6.111,-3.85 10.792,-3.85c4.682,0 8.262,1.283 10.742,3.85c2.48,2.566 3.72,6.242 3.72,11.029l-0,29.646l45.99,0l-0,-29.646c-0,-4.787 1.256,-8.463 3.77,-11.029c2.514,-2.567 6.111,-3.85 10.792,-3.85c4.681,0 8.262,1.283 10.743,3.85c2.48,2.566 3.721,6.242 3.721,11.029l-0,84.657c-0,4.749 -1.241,8.416 -3.721,11.001c-2.481,2.585 -6.062,3.878 -10.743,3.878c-4.681,-0 -8.278,-1.293 -10.792,-3.878c-2.514,-2.585 -3.77,-6.252 -3.77,-11.001l-0,-31.126l-45.99,-0l-0,31.126c-0,4.749 -1.214,8.416 -3.641,11.001c-2.427,2.585 -6.034,3.878 -10.821,3.878Z" style="fill:#da127d;fill-rule:nonzero;"/><path d="M418.483,208.803c-5.992,-0 -11.293,-1.115 -15.904,-3.343c-4.61,-2.229 -8.204,-5.272 -10.782,-9.129c-2.578,-3.858 -3.866,-8.241 -3.866,-13.15c-0,-5.692 1.475,-10.182 4.427,-13.469c2.952,-3.287 7.714,-5.651 14.288,-7.093c6.574,-1.442 15.28,-2.163 26.118,-2.163l8.715,-0l-0,13.302l-8.759,0c-4.113,0 -7.497,0.3 -10.152,0.899c-2.656,0.6 -4.615,1.496 -5.878,2.687c-1.264,1.192 -1.895,2.754 -1.895,4.686c-0,2.469 0.859,4.491 2.577,6.066c1.718,1.574 4.233,2.362 7.545,2.362c2.603,-0 4.929,-0.582 6.978,-1.745c2.049,-1.163 3.695,-2.78 4.94,-4.852c1.244,-2.072 1.866,-4.482 1.866,-7.23l0,-18.285c0,-3.856 -0.957,-6.557 -2.872,-8.103c-1.915,-1.546 -5.243,-2.319 -9.985,-2.319c-2.586,0 -5.443,0.285 -8.57,0.855c-3.127,0.57 -6.675,1.583 -10.643,3.039c-2.811,1.016 -5.234,1.162 -7.267,0.437c-2.034,-0.724 -3.59,-1.964 -4.669,-3.719c-1.079,-1.755 -1.601,-3.693 -1.567,-5.813c0.033,-2.12 0.708,-4.146 2.022,-6.079c1.314,-1.933 3.377,-3.403 6.189,-4.409c4.983,-1.868 9.63,-3.139 13.942,-3.815c4.313,-0.675 8.246,-1.013 11.801,-1.013c8.667,0 15.805,1.244 21.413,3.731c5.609,2.487 9.811,6.295 12.606,11.425c2.795,5.129 4.193,11.685 4.193,19.669l-0,31.994c-0,4.615 -1.111,8.145 -3.332,10.591c-2.221,2.447 -5.447,3.67 -9.677,3.67c-4.229,-0 -7.481,-1.223 -9.755,-3.67c-2.274,-2.446 -3.411,-5.976 -3.411,-10.591l-0,-4.055l0.961,2.12c-0.535,3.352 -1.766,6.254 -3.691,8.707c-1.926,2.452 -4.405,4.366 -7.437,5.742c-3.032,1.375 -6.522,2.063 -10.469,2.063Z" style="fill:#da127d;fill-rule:nonzero;"/><path d="M495.28,236.949c-4.508,0 -7.976,-1.213 -10.403,-3.64c-2.427,-2.427 -3.641,-5.949 -3.641,-10.564l0,-80.82c0,-4.613 1.197,-8.134 3.59,-10.561c2.394,-2.427 5.792,-3.641 10.195,-3.641c4.51,0 7.961,1.214 10.354,3.641c2.394,2.427 3.59,5.948 3.59,10.561l0,9.105l-1.739,-7.773c1.514,-4.704 4.621,-8.522 9.321,-11.453c4.7,-2.931 10.049,-4.397 16.046,-4.397c6.679,0 12.575,1.634 17.688,4.902c5.113,3.268 9.109,7.931 11.989,13.988c2.88,6.058 4.32,13.317 4.32,21.778c0,8.358 -1.44,15.601 -4.32,21.73c-2.88,6.129 -6.867,10.828 -11.961,14.096c-5.094,3.268 -10.999,4.902 -17.716,4.902c-5.824,-0 -11.06,-1.389 -15.708,-4.167c-4.647,-2.778 -7.78,-6.346 -9.4,-10.705l1.898,0l-0,28.814c-0,4.615 -1.223,8.137 -3.669,10.564c-2.446,2.427 -5.924,3.64 -10.434,3.64Zm28.344,-48.925c2.891,-0 5.425,-0.696 7.603,-2.089c2.177,-1.393 3.898,-3.556 5.162,-6.491c1.264,-2.934 1.896,-6.724 1.896,-11.369c0,-7.02 -1.371,-12.09 -4.113,-15.211c-2.743,-3.12 -6.259,-4.68 -10.548,-4.68c-2.823,-0 -5.34,0.686 -7.552,2.06c-2.211,1.374 -3.948,3.511 -5.212,6.413c-1.263,2.901 -1.895,6.708 -1.895,11.418c0,6.983 1.372,12.053 4.114,15.211c2.743,3.159 6.258,4.738 10.545,4.738Z" style="fill:#da127d;fill-rule:nonzero;"/><path d="M593.387,236.949c-4.508,0 -7.976,-1.213 -10.403,-3.64c-2.427,-2.427 -3.641,-5.949 -3.641,-10.564l0,-80.82c0,-4.613 1.197,-8.134 3.59,-10.561c2.394,-2.427 5.792,-3.641 10.195,-3.641c4.509,0 7.961,1.214 10.354,3.641c2.394,2.427 3.59,5.948 3.59,10.561l0,9.105l-1.739,-7.773c1.514,-4.704 4.621,-8.522 9.321,-11.453c4.7,-2.931 10.049,-4.397 16.046,-4.397c6.679,0 12.575,1.634 17.688,4.902c5.112,3.268 9.109,7.931 11.989,13.988c2.88,6.058 4.32,13.317 4.32,21.778c-0,8.358 -1.44,15.601 -4.32,21.73c-2.88,6.129 -6.867,10.828 -11.961,14.096c-5.094,3.268 -10.999,4.902 -17.716,4.902c-5.825,-0 -11.06,-1.389 -15.708,-4.167c-4.647,-2.778 -7.781,-6.346 -9.4,-10.705l1.898,0l-0,28.814c-0,4.615 -1.223,8.137 -3.669,10.564c-2.446,2.427 -5.924,3.64 -10.434,3.64Zm28.344,-48.925c2.891,-0 5.425,-0.696 7.602,-2.089c2.178,-1.393 3.899,-3.556 5.163,-6.491c1.264,-2.934 1.896,-6.724 1.896,-11.369c0,-7.02 -1.371,-12.09 -4.113,-15.211c-2.743,-3.12 -6.259,-4.68 -10.548,-4.68c-2.823,-0 -5.34,0.686 -7.552,2.06c-2.211,1.374 -3.948,3.511 -5.212,6.413c-1.263,2.901 -1.895,6.708 -1.895,11.418c0,6.983 1.372,12.053 4.114,15.211c2.743,3.159 6.258,4.738 10.545,4.738Z" style="fill:#da127d;fill-rule:nonzero;"/><path d="M699.296,236.949c-3.193,0 -5.814,-0.841 -7.863,-2.525c-2.048,-1.683 -3.305,-3.897 -3.77,-6.64c-0.465,-2.743 0.012,-5.66 1.432,-8.75l10.55,-22.867l-0,11.252l-27.062,-61.723c-1.354,-3.196 -1.788,-6.148 -1.303,-8.858c0.485,-2.71 1.881,-4.906 4.187,-6.589c2.307,-1.684 5.456,-2.526 9.447,-2.526c3.367,0 6.075,0.773 8.123,2.317c2.048,1.544 3.921,4.551 5.619,9.022l15.895,41.07l-5.349,0l16.669,-41.327c1.699,-4.232 3.642,-7.137 5.829,-8.715c2.187,-1.578 5.104,-2.367 8.749,-2.367c3.126,0 5.644,0.842 7.553,2.526c1.909,1.683 3.089,3.87 3.54,6.561c0.452,2.69 -0.052,5.632 -1.509,8.826l-35.902,80.694c-1.842,4.162 -3.907,6.973 -6.195,8.431c-2.287,1.459 -5.167,2.188 -8.64,2.188Z" style="fill:#da127d;fill-rule:nonzero;"/><path d="M778.718,208.487c-4.682,-0 -8.279,-1.293 -10.792,-3.878c-2.514,-2.585 -3.771,-6.22 -3.771,-10.902l0,-83.447c0,-4.786 1.283,-8.436 3.85,-10.95c2.566,-2.513 6.19,-3.77 10.871,-3.77l38.916,-0c12.632,-0 22.387,3.094 29.263,9.281c6.877,6.188 10.316,14.72 10.316,25.598c-0,7.121 -1.553,13.276 -4.659,18.467c-3.106,5.191 -7.589,9.189 -13.449,11.992c-5.861,2.804 -13.018,4.205 -21.471,4.205l1.221,-2.777l7.642,0c4.523,0 8.51,1.071 11.962,3.213c3.451,2.143 6.356,5.413 8.713,9.813l7.82,14.305c1.736,3.089 2.534,6.074 2.395,8.957c-0.139,2.882 -1.266,5.252 -3.381,7.108c-2.115,1.856 -5.27,2.785 -9.463,2.785c-4.057,-0 -7.386,-0.842 -9.986,-2.526c-2.6,-1.683 -4.888,-4.328 -6.865,-7.936l-14.456,-26.483c-1.224,-2.306 -2.807,-3.897 -4.751,-4.772c-1.944,-0.876 -4.178,-1.314 -6.703,-1.314l-8.761,0l-0,28.251c-0,4.682 -1.214,8.317 -3.641,10.902c-2.427,2.585 -6.034,3.878 -10.82,3.878Zm14.461,-63.607l19.316,0c5.59,0 9.853,-1.115 12.788,-3.345c2.936,-2.23 4.403,-5.643 4.403,-10.239c0,-4.488 -1.467,-7.848 -4.403,-10.078c-2.935,-2.23 -7.198,-3.345 -12.788,-3.345l-19.316,-0l-0,27.007Z" style="fill:#da127d;fill-rule:nonzero;"/><path d="M911.682,208.803c-8.617,-0 -16.146,-1.634 -22.588,-4.902c-6.442,-3.268 -11.448,-7.967 -15.019,-14.096c-3.571,-6.129 -5.357,-13.372 -5.357,-21.73c0,-6.287 1.007,-11.932 3.019,-16.934c2.013,-5.002 4.91,-9.286 8.692,-12.851c3.782,-3.566 8.316,-6.271 13.603,-8.116c5.286,-1.844 11.17,-2.767 17.65,-2.767c8.685,0 16.232,1.634 22.64,4.902c6.408,3.268 11.398,7.94 14.969,14.017c3.571,6.076 5.356,13.326 5.356,21.749c0,6.288 -1.006,11.942 -3.02,16.964c-2.014,5.023 -4.911,9.316 -8.692,12.881c-3.781,3.566 -8.315,6.271 -13.603,8.116c-5.287,1.844 -11.171,2.767 -17.65,2.767Zm-0,-20.779c2.89,-0 5.424,-0.696 7.602,-2.089c2.177,-1.393 3.898,-3.556 5.163,-6.491c1.264,-2.934 1.896,-6.724 1.896,-11.369c-0,-7.02 -1.371,-12.09 -4.114,-15.211c-2.742,-3.12 -6.258,-4.68 -10.547,-4.68c-2.824,-0 -5.341,0.686 -7.552,2.06c-2.212,1.374 -3.949,3.511 -5.212,6.413c-1.264,2.901 -1.895,6.708 -1.895,11.418c-0,6.983 1.371,12.053 4.113,15.211c2.743,3.159 6.258,4.738 10.546,4.738Z" style="fill:#da127d;fill-rule:nonzero;"/><path d="M997.039,208.803c-10.164,-0 -17.645,-2.723 -22.442,-8.168c-4.798,-5.446 -7.196,-13.657 -7.196,-24.634l-0,-67.725c-0,-4.615 1.213,-8.136 3.64,-10.563c2.427,-2.427 5.895,-3.641 10.403,-3.641c4.51,0 7.988,1.214 10.434,3.641c2.446,2.427 3.669,5.948 3.669,10.563l0,66.878c0,3.839 0.775,6.65 2.326,8.43c1.551,1.781 3.517,2.671 5.899,2.671c0.776,-0 1.566,-0.077 2.371,-0.231c0.804,-0.154 1.643,-0.25 2.516,-0.288c1.88,-0.076 3.251,0.572 4.115,1.945c0.864,1.372 1.296,4.192 1.296,8.459c0,3.645 -0.729,6.391 -2.187,8.238c-1.457,1.846 -3.702,3.062 -6.732,3.646c-0.854,0.106 -2.079,0.262 -3.675,0.469c-1.597,0.206 -3.076,0.31 -4.437,0.31Z" style="fill:#da127d;fill-rule:nonzero;"/><path d="M1052.03,208.803c-10.164,-0 -17.645,-2.723 -22.442,-8.168c-4.798,-5.446 -7.196,-13.657 -7.196,-24.634l-0,-67.725c-0,-4.615 1.213,-8.136 3.64,-10.563c2.427,-2.427 5.895,-3.641 10.403,-3.641c4.51,0 7.988,1.214 10.434,3.641c2.446,2.427 3.669,5.948 3.669,10.563l0,66.878c0,3.839 0.775,6.65 2.326,8.43c1.551,1.781 3.517,2.671 5.899,2.671c0.776,-0 1.566,-0.077 2.371,-0.231c0.804,-0.154 1.643,-0.25 2.516,-0.288c1.88,-0.076 3.251,0.572 4.115,1.945c0.864,1.372 1.296,4.192 1.296,8.459c0,3.645 -0.729,6.391 -2.187,8.238c-1.457,1.846 -3.702,3.062 -6.732,3.646c-0.853,0.106 -2.079,0.262 -3.675,0.469c-1.597,0.206 -3.076,0.31 -4.437,0.31Z" style="fill:#da127d;fill-rule:nonzero;"/></g><g><path d="M19.92,221.917l0,-193.918l59.077,0.106l-0,52.807c10.582,-6.466 29.107,-9.381 42.802,-9.918c0.72,0.101 1.452,0.166 2.194,0.192c53.828,1.886 105.438,46.889 103.202,110.698c-0.048,1.371 0.037,2.717 0.244,4.023l-0,27.255l-58.03,-0l-0,-43.485c-0,-5.75 1.068,-68.998 -45.73,-68.998c-46.797,-0 -44.343,58.598 -44.343,68.635c-0,16.972 -0.165,39.967 -0.202,44.942c4.216,1.447 8.37,3.325 12.4,5.652c7.205,4.16 9.677,13.386 5.517,20.591c-4.159,7.205 -13.386,9.677 -20.59,5.517c-17.282,-9.977 -39.029,-5.72 -48.333,10.396c-4.16,7.205 -13.386,9.677 -20.591,5.518c-7.205,-4.16 -9.677,-13.386 -5.517,-20.591c4.572,-7.92 10.726,-14.447 17.9,-19.422Z" style="fill:#da127d;"/><ellipse cx="198.472" cy="213.255" rx="28.967" ry="27.592" style="fill:#da127d;"/><ellipse cx="49.426" cy="28.105" rx="29.506" ry="28.105" style="fill:#da127d;"/><path d="M187.291,269.412c7.283,-7.284 19.11,-7.284 26.393,-0c7.284,7.283 7.284,19.11 0,26.393c-47.21,47.211 -123.868,47.211 -171.079,-0c-7.283,-7.283 -7.283,-19.11 -0,-26.393c7.283,-7.284 19.11,-7.284 26.393,-0c32.644,32.644 85.649,32.644 118.293,-0Z" style="fill:#da127d;"/></g></g></svg>